<svg width="280" height="81" viewBox="0 0 280 81" fill="none" xmlns="http://www.w3.org/2000/svg">
<mask id="mask0_8239_8968" style="mask-type:alpha" maskUnits="userSpaceOnUse" x="-20" y="-115" width="311" height="245">
<rect x="-24" y="-46.6169" width="279.667" height="186.999" rx="20" transform="rotate(-15 -24 -46.6169)" fill="#D9D9D9"/>
</mask>
<g mask="url(#mask0_8239_8968)">
<g clip-path="url(#clip0_8239_8968)">
<g style="mix-blend-mode:screen" opacity="0.05">
<path d="M211.069 44.4929C206.907 45.6082 202.424 45.7442 198.33 44.8941C188.35 42.8221 179.885 36.4624 171.699 30.3111C170.946 29.7444 170.193 29.1797 169.44 28.617C160.256 21.7329 150.205 15.3563 138.933 15.3086C129.466 15.2831 120.674 19.9003 112.171 24.3647C102.453 29.4678 92.4052 34.7439 81.5803 32.7551C74.2377 31.4063 67.3363 26.7849 60.4846 18.6279C57.9312 15.5899 55.3756 12.0941 52.6697 7.94118C51.9182 6.79298 51.1743 5.63863 50.4326 4.48883C49.0645 2.36541 47.6484 0.170386 46.2423 -1.90266C41.837 -8.43127 36.8855 -15.1576 29.1418 -19.3793C28.673 -19.6338 28.1836 -19.8807 27.6994 -20.1157C20.812 -23.413 12.4838 -24.5893 4.24972 -23.4194C-1.85689 -22.5537 -7.6246 -20.3963 -12.4278 -17.1798C-14.0481 -16.0946 -15.5875 -14.8933 -17.034 -13.5854C-26.0959 -5.43549 -31.6776 7.26664 -31.9633 20.3938L-32.5175 20.3816C-32.2273 7.10592 -26.5774 -5.74532 -17.4033 -13.9953C-15.9383 -15.3198 -14.3792 -16.5364 -12.7383 -17.6354C-7.86618 -20.8982 -2.02027 -23.0827 4.17008 -23.9626C12.5098 -25.1454 20.9501 -23.9548 27.9355 -20.6106C28.4327 -20.373 28.9266 -20.121 29.4039 -19.8616C37.2567 -15.5785 42.2556 -8.79478 46.6977 -2.2091C48.107 -0.13176 49.5249 2.06588 50.8957 4.19166C51.6361 5.34076 52.381 6.49108 53.1303 7.64261C55.8241 11.7772 58.3628 15.2559 60.905 18.2752C67.6718 26.3303 74.4659 30.8898 81.6763 32.2143C92.3139 34.1688 101.833 29.1704 111.91 23.8783C120.472 19.3825 129.327 14.7332 138.932 14.7588C150.364 14.8066 160.509 21.2365 169.769 28.1775C170.523 28.7394 171.276 29.3044 172.029 29.8725C180.169 35.9823 188.588 42.304 198.443 44.3549C209.083 46.563 222.407 41.6743 225.281 30.8794C227.316 23.2256 223.553 15.841 221.128 12.1195C218.632 8.28649 215.478 4.86661 212.421 1.56073C211.043 0.0694013 209.619 -1.47354 208.273 -3.03419C204.437 -7.49311 201.062 -12.3291 198.199 -17.4681C187.845 -36.0301 184.244 -58.4211 188.322 -78.9C188.891 -81.7528 189.603 -84.5751 190.457 -87.3561C197.599 -110.636 214.048 -130.47 235.586 -141.772L235.844 -141.282C214.435 -130.047 198.085 -110.333 190.986 -87.1931C190.138 -84.4312 189.43 -81.6282 188.864 -78.7949C184.812 -58.4443 188.391 -36.1908 198.682 -17.7416C201.526 -12.6356 204.88 -7.83047 208.691 -3.39962C210.034 -1.8464 211.452 -0.306999 212.827 1.181C215.896 4.50431 219.067 7.94225 221.591 11.8132C224.066 15.6118 227.906 23.1583 225.816 31.0185C223.915 38.1476 217.929 42.6549 211.069 44.4929Z" fill="#0047FF" fill-opacity="0.5"/>
</g>
<g style="mix-blend-mode:screen" opacity="0.1">
<path d="M210.668 43.7433C206.981 44.7312 203.074 44.9363 199.472 44.3316C189.515 42.6633 180.88 36.5767 172.529 30.6913L171.143 29.7162C161.913 23.2268 151.862 17.2013 140.908 17.0395C131.693 16.9333 123.096 21.1118 114.784 25.1551C105.127 29.8517 95.1421 34.708 84.4944 32.4276C75.1317 30.4189 67.9841 23.1797 63.421 17.9069C60.8862 14.9805 58.2226 11.5734 55.271 7.50684L54.3701 6.26991C52.3422 3.48676 50.4277 0.857643 48.5033 -1.61635C43.4626 -8.09521 39.0179 -13.3296 31.6129 -16.8024C31.1478 -17.0199 30.6626 -17.2319 30.1723 -17.4322C23.1873 -20.2944 14.5696 -21.4323 6.52852 -20.5531C0.24514 -19.8667 -5.41327 -18.024 -10.2902 -15.075C-11.9423 -14.0737 -13.5193 -12.9532 -15.0086 -11.7225C-24.4293 -3.95866 -30.3498 8.97434 -30.4627 22.016L-31.0168 22.012C-30.9038 8.80548 -24.9027 -4.27998 -15.3602 -12.1507C-13.85 -13.3985 -12.2506 -14.5343 -10.5748 -15.5489C-5.63 -18.5407 0.104945 -20.4091 6.47334 -21.1049C14.6036 -21.9936 23.3194 -20.8428 30.3878 -17.9463C30.8861 -17.743 31.3796 -17.527 31.8521 -17.3085C39.369 -13.7833 43.8575 -8.50082 48.9407 -1.95919C50.8711 0.521466 52.7886 3.15391 54.8182 5.94379L55.7201 7.18047C58.6601 11.2346 61.3199 14.6273 63.8408 17.5441C68.3517 22.7567 75.4115 29.9143 84.6108 31.8854C95.0747 34.1296 104.531 29.5262 114.543 24.6564C122.914 20.5847 131.569 16.3751 140.917 16.4849C152.021 16.6498 162.156 22.7248 171.462 29.2619L172.849 30.2389C181.149 36.0885 189.734 42.1371 199.565 43.7875C209.748 45.4949 222.417 40.6125 225.129 29.7509C227.008 22.2255 223.399 14.9459 221.08 11.2765C218.704 7.51504 215.715 4.13947 212.825 0.874483C211.487 -0.636826 210.103 -2.2007 208.797 -3.78037C205.149 -8.21151 201.962 -13.0035 199.286 -18.0817C189.662 -36.3192 186.741 -58.1546 191.272 -77.9906C191.894 -80.7163 192.667 -83.4568 193.57 -86.1381C201.096 -108.456 217.597 -127.411 238.84 -138.143L239.09 -137.649C217.974 -126.982 201.574 -108.142 194.094 -85.9603C193.198 -83.3023 192.437 -80.601 191.812 -77.8664C187.309 -58.1586 190.213 -36.4627 199.776 -18.3407C202.435 -13.2962 205.602 -8.53654 209.228 -4.13589C210.526 -2.56333 211.907 -1.00374 213.242 0.505194C216.147 3.78587 219.15 7.17931 221.55 10.9775C223.916 14.7217 227.598 22.1572 225.669 29.8823C223.84 37.1933 217.65 41.8724 210.668 43.7433Z" fill="#0047FF" fill-opacity="0.5"/>
</g>
<g style="mix-blend-mode:screen" opacity="0.14">
<path d="M210.441 43.0601C207.243 43.9227 203.908 44.1644 200.618 43.772C190.671 42.5339 182.229 36.9828 173.291 31.1084L172.85 30.8146C164.192 25.1245 154.025 19.0314 142.888 18.7703C133.916 18.5608 125.513 22.3153 117.387 25.9484C107.346 30.4334 97.8739 34.6683 87.4081 32.098C78.6488 29.9472 71.8521 23.3527 66.3587 17.1867C63.3369 13.7994 60.3942 10.1889 57.873 7.07128C55.0265 3.55043 52.7687 0.881445 50.7691 -1.32722C45.3811 -7.28036 41.3099 -11.394 34.087 -14.2254C33.6192 -14.4084 33.1397 -14.5825 32.6485 -14.7476C25.3867 -17.2244 16.6976 -18.2948 8.8092 -17.6873C2.42215 -17.1956 -3.28426 -15.6089 -8.15438 -12.9688C-9.83948 -12.0535 -11.4542 -11.0141 -12.9852 -9.85921C-22.8988 -2.40522 -29.0212 10.4315 -28.9631 23.6427L-29.5163 23.6456C-29.5735 10.2611 -23.3667 -2.74858 -13.3165 -10.3041C-11.7632 -11.4761 -10.1246 -12.5305 -8.41433 -13.4586C-3.47967 -16.1345 2.29995 -17.7439 8.76677 -18.2415C16.7267 -18.8548 25.4959 -17.7739 32.8266 -15.2743C33.3236 -15.1053 33.8107 -14.9285 34.2879 -14.7439C41.6238 -11.8676 45.7381 -7.71598 51.1788 -1.70073C53.186 0.517227 55.45 3.19384 58.3039 6.72301C60.8206 9.83566 63.7581 13.4383 66.7752 16.8155C72.2128 22.9192 78.9317 29.4428 87.5435 31.558C97.8223 34.0836 107.217 29.885 117.161 25.4402C125.347 21.782 133.808 18.0005 142.902 18.2144C154.184 18.4787 164.433 24.6169 173.154 30.3497L173.596 30.6435C182.478 36.4834 190.869 41.9998 200.688 43.2217C210.667 44.4626 222.481 39.3396 224.98 28.6285C226.706 21.231 223.248 14.057 221.034 10.4399C218.781 6.75486 215.962 3.42542 213.235 0.207185C211.935 -1.32865 210.59 -2.9173 209.326 -4.52157C205.863 -8.92276 202.862 -13.6688 200.37 -18.6845C191.342 -36.8591 189.158 -57.5938 194.22 -77.0694C194.909 -79.7218 195.73 -82.338 196.681 -84.9082C204.584 -106.261 221.136 -124.338 242.092 -134.503L242.334 -134.004C221.506 -123.901 205.057 -105.936 197.201 -84.7209C196.256 -82.1632 195.433 -79.5433 194.756 -76.9348C189.728 -57.5879 191.897 -36.9903 200.866 -18.9347C203.34 -13.9528 206.321 -9.23908 209.761 -4.86799C211.019 -3.27135 212.364 -1.68871 213.658 -0.155426C216.397 3.07998 219.232 6.42482 221.506 10.1464C223.764 13.8364 227.289 21.1655 225.518 28.7482C223.748 36.3164 217.497 41.1696 210.441 43.0601Z" fill="#0047FF" fill-opacity="0.5"/>
</g>
<g style="mix-blend-mode:screen" opacity="0.19">
<path d="M210.199 42.4019C207.453 43.1419 204.601 43.4139 201.764 43.2064C191.766 42.429 182.623 36.8414 174.555 31.9123C165.433 26.3374 155.626 20.8647 144.866 20.4995C136.155 20.2046 127.961 23.5315 120.035 26.7482C110.049 30.8012 100.617 34.6296 90.3268 31.7683C81.664 29.3588 74.9305 22.6041 69.3 16.4646C67.3182 14.3068 65.3728 12.1197 63.4911 10.0051C62.4607 8.85023 61.4567 7.72026 60.4808 6.63423C57.7772 3.62729 55.2756 1.0442 53.0412 -1.04178C47.585 -6.13496 43.7568 -9.38763 36.5621 -11.6527C36.0949 -11.7975 35.6157 -11.9359 35.1244 -12.068C27.4287 -14.1617 18.6695 -15.167 11.0891 -14.8243C4.57687 -14.5309 -1.17274 -13.2015 -6.01282 -10.8682C-7.73175 -10.0384 -9.38498 -9.07884 -10.9582 -7.99783C-21.2082 -0.988369 -27.6854 12.0691 -27.4593 25.2692L-28.0127 25.2795C-28.2429 11.895 -21.6706 -1.34559 -11.2719 -8.45772C-9.67526 -9.55391 -7.9973 -10.5267 -6.25266 -11.3675C-1.34605 -13.733 4.48069 -15.0821 11.0634 -15.3779C18.6997 -15.7231 27.5215 -14.711 35.2683 -12.6031C35.7668 -12.4695 36.2528 -12.3291 36.7261 -12.1819C44.0353 -9.88565 47.9039 -6.59335 53.4139 -1.44556C55.6587 0.652074 58.1725 3.2463 60.8877 6.2656C61.8645 7.35137 62.8708 8.48179 63.8994 9.63814C65.7796 11.751 67.7284 13.9352 69.7034 16.0907C75.2823 22.1761 81.9491 28.8662 90.4698 31.2334C100.579 34.0454 109.926 30.2512 119.819 26.2352C127.799 22.9959 136.05 19.6466 144.878 19.9463C155.772 20.3155 165.651 25.8266 174.836 31.4394C182.85 36.3365 191.933 41.8876 201.799 42.6552C211.213 43.3862 222.481 38.3249 224.823 27.5035C225.988 22.1165 224.623 15.7581 220.981 9.59886C218.851 5.99339 216.202 2.71614 213.641 -0.453699C212.378 -2.01694 211.071 -3.63353 209.848 -5.26501C206.571 -9.63762 203.759 -14.339 201.454 -19.2933C193.16 -37.0965 191.637 -57.3119 197.168 -76.1554C197.908 -78.6807 198.791 -81.2138 199.793 -83.6868C208.062 -104.067 224.664 -121.264 245.34 -130.868L245.577 -130.367C225.023 -120.82 208.523 -103.73 200.3 -83.4756C199.305 -81.0208 198.429 -78.5041 197.694 -75.9974C192.201 -57.2827 193.714 -37.2057 201.951 -19.5241C204.24 -14.6045 207.034 -9.93621 210.289 -5.59439C211.506 -3.97149 212.81 -2.35535 214.07 -0.799279C216.643 2.38581 219.307 5.67945 221.456 9.32035C225.169 15.5996 226.556 22.0993 225.363 27.6226C223.644 35.5842 217.238 40.5158 210.199 42.4019Z" fill="#0047FF" fill-opacity="0.5"/>
</g>
<g style="mix-blend-mode:screen" opacity="0.24">
<path d="M209.93 41.8022C207.641 42.4186 205.275 42.7022 202.905 42.6442C193.608 42.394 185.335 38.1339 176.255 33.0113C168.135 28.432 158.03 22.732 146.836 22.2288C138.394 21.8536 130.418 24.7551 122.708 27.5608C112.761 31.178 103.362 34.5989 93.2356 31.4401C85.1307 28.9141 78.6716 22.5762 72.2311 15.743L71.0909 14.5352C68.4017 11.6861 65.6247 8.74005 63.0785 6.19778C60.3619 3.48071 57.6747 1.07718 55.3065 -0.754571C50.1097 -4.7758 46.5421 -7.32874 39.0378 -9.08128C38.572 -9.19031 38.0927 -9.29164 37.601 -9.38962C32.608 -10.4058 22.8214 -12.0897 13.3669 -11.9619C6.6292 -11.8718 0.988663 -10.8271 -3.87387 -8.76596C-5.62763 -8.02421 -7.32061 -7.14621 -8.93727 -6.14002C-19.507 0.414257 -26.3485 13.6878 -25.9593 26.8896L-26.5123 26.9049C-26.9136 13.3045 -20.1254 0.147265 -9.22636 -6.61165C-7.58629 -7.63185 -5.86932 -8.52281 -4.09099 -9.27645C0.84033 -11.3653 6.5489 -12.4251 13.361 -12.5104C22.8669 -12.6386 32.6978 -10.947 37.7113 -9.92707C38.2096 -9.82775 38.6923 -9.72529 39.1647 -9.61492C46.7799 -7.83647 50.3895 -5.25358 55.6469 -1.18678C58.0332 0.658661 60.7392 3.07878 63.4725 5.81199C66.0215 8.36073 68.8031 11.3087 71.495 14.1601L72.6355 15.3689C79.0272 22.1431 85.4231 28.4257 93.4017 30.9145C103.349 34.0181 112.66 30.6291 122.519 27.0448C130.285 24.2201 138.315 21.3009 146.863 21.6819C158.188 22.188 168.786 28.17 176.527 32.5334C185.542 37.6187 193.75 41.8481 202.921 42.0938C212.129 42.3411 222.556 37.0253 224.673 26.3858C225.727 21.0955 224.398 14.8389 220.934 8.76691C218.928 5.24623 216.45 2.02552 214.056 -1.08919C212.829 -2.68682 211.559 -4.33492 210.371 -6.00081C207.278 -10.3442 204.65 -15.0007 202.529 -19.8935C194.954 -37.4025 194.098 -57.0569 200.108 -75.2328C200.907 -77.659 201.845 -80.0892 202.896 -82.4549C211.526 -101.859 228.18 -118.178 248.584 -127.226L248.809 -126.719C228.534 -117.732 211.984 -101.516 203.413 -82.2369C202.371 -79.8889 201.439 -77.476 200.645 -75.0656C194.675 -57.0777 195.531 -37.52 203.049 -20.1204C205.153 -15.2632 207.761 -10.6402 210.829 -6.32758C212.008 -4.67265 213.274 -3.02569 214.499 -1.43259C216.905 1.69736 219.397 4.93303 221.419 8.48652C224.949 14.6747 226.299 21.0681 225.22 26.4886C223.572 34.7473 217.076 39.8875 209.93 41.8022Z" fill="#0047FF" fill-opacity="0.5"/>
</g>
<g style="mix-blend-mode:screen" opacity="0.29">
<path d="M209.597 41.263C207.787 41.7513 205.925 42.0271 204.051 42.0848C194.728 42.3514 186.049 38.2938 177.957 34.1149L177.704 33.984C169.151 29.5671 159.458 24.5602 148.811 23.9673C140.657 23.5148 132.913 25.9925 125.42 28.3907C115.494 31.5655 106.118 34.567 96.1484 31.115C88.0571 28.3092 81.6224 21.6744 75.401 15.2626L75.1691 15.0238C71.3048 11.0484 68.292 8.10986 65.6849 5.76316C62.8603 3.22338 60.0599 1.07373 57.5828 -0.465095C51.9421 -3.96766 48.6677 -5.40721 41.5163 -6.50744C41.0523 -6.57884 40.5734 -6.6442 40.0803 -6.70885L39.0375 -6.84974C32.0828 -7.78839 23.428 -8.95759 15.6483 -9.09724C8.75062 -9.2239 3.06414 -8.42753 -1.73803 -6.66381C-3.52301 -6.00936 -5.25249 -5.21246 -6.90978 -4.28081C-17.9657 1.90819 -25.0167 15.0875 -24.4582 28.5138L-25.0113 28.5363C-25.5789 14.9074 -18.4173 1.52544 -7.18145 -4.76432C-5.49811 -5.7101 -3.74168 -6.51939 -1.92902 -7.1844C2.93695 -8.9714 8.6896 -9.77828 15.6575 -9.65087C23.4673 -9.51413 32.1431 -8.33611 39.1107 -7.39889L40.1514 -7.25844C40.6488 -7.19291 41.1311 -7.12639 41.5992 -7.05505C48.8452 -5.94 52.1636 -4.48236 57.8738 -0.935574C60.378 0.619694 63.2065 2.79372 66.0534 5.35124C68.671 7.70236 71.696 10.652 75.5663 14.6382L75.7981 14.8769C81.9756 21.2439 88.3629 27.8286 96.3313 30.5869C106.127 33.9787 115.418 31.0058 125.254 27.8573C132.794 25.4456 140.59 22.9506 148.844 23.4094C159.611 24.0083 169.356 29.0391 177.959 33.4871L178.213 33.6178C186.24 37.7635 194.846 41.7892 204.037 41.526C212.52 41.2856 222.559 36.0902 224.521 25.2594C225.461 20.0626 224.171 13.9108 220.884 7.92512C219.004 4.49551 216.7 1.33731 214.473 -1.71695C213.278 -3.35424 212.044 -5.04495 210.899 -6.74703C207.993 -11.0628 205.554 -15.6752 203.622 -20.5065C196.768 -37.6843 196.57 -56.7972 203.061 -74.3254C203.92 -76.6519 204.912 -78.9783 206.013 -81.2398C215.126 -99.9299 231.405 -114.975 251.843 -123.595L252.059 -123.085C231.74 -114.515 215.565 -99.5665 206.513 -80.9937C205.422 -78.749 204.438 -76.4395 203.583 -74.1304C197.137 -56.7338 197.333 -37.7626 204.137 -20.7084C206.055 -15.9141 208.476 -11.3369 211.36 -7.05379C212.499 -5.35933 213.73 -3.671 214.92 -2.04089C217.159 1.02791 219.476 4.20014 221.372 7.6657C224.72 13.7626 226.029 20.0504 225.067 25.3664C223.465 34.1786 216.677 39.3661 209.597 41.263Z" fill="#0047FF" fill-opacity="0.5"/>
</g>
<g style="mix-blend-mode:screen" opacity="0.33">
<path d="M209.253 40.7938C207.926 41.1505 206.57 41.3918 205.201 41.515C196.792 42.265 188.914 39.536 179.665 35.2087L178.252 34.5469C170.09 30.7124 160.84 26.367 150.787 25.6938C142.938 25.1679 135.438 27.2312 128.184 29.2264C118.262 31.9571 108.889 34.5354 99.063 30.7811C91.6205 27.9375 85.5803 21.8408 79.7385 15.9464C79.194 15.398 78.6497 14.8501 78.1056 14.303C74.4793 10.6738 71.1748 7.6537 68.2857 5.32692C65.3294 2.94503 62.4147 1.04133 59.8566 -0.177039C54.2687 -2.84075 51.2992 -3.3998 43.9911 -3.93572C43.6297 -3.9625 43.257 -3.98523 42.8787 -4.00955L42.5551 -4.02586C39.3991 -4.22793 35.8397 -4.60211 32.0716 -4.99766C27.3613 -5.49306 22.4903 -6.00411 17.9245 -6.22917C10.7502 -6.58871 5.1794 -6.05618 0.397518 -4.56265C-1.42017 -3.99656 -3.18812 -3.28164 -4.88841 -2.42515C-16.2471 3.29075 -23.6769 16.6828 -22.9561 30.1377L-23.5123 30.1683C-24.241 16.4991 -16.6863 2.89331 -5.13632 -2.91607C-3.40948 -3.78793 -1.61353 -4.51552 0.233182 -5.09141C5.07938 -6.60629 10.7101 -7.14562 17.9541 -6.78725C22.5344 -6.56194 27.4132 -6.04885 32.1317 -5.55359C35.8935 -5.15842 39.4438 -4.78384 42.5872 -4.58253L42.9108 -4.56622C43.2932 -4.54196 43.6671 -4.51853 44.0295 -4.49201C51.4185 -3.94996 54.419 -3.38274 60.0932 -0.681378C62.6902 0.555415 65.6413 2.48337 68.6307 4.89247C71.5335 7.23205 74.8517 10.2649 78.4932 13.9086C79.0378 14.455 79.5823 15.0034 80.1266 15.554C85.9275 21.4068 91.925 27.4593 99.2561 30.2606C108.914 33.9499 118.2 31.3947 128.034 28.6897C135.33 26.6822 142.877 24.6094 150.821 25.1378C160.976 25.8163 170.278 30.1871 178.483 34.0419L179.897 34.7038C189.061 38.9939 196.862 41.6961 205.148 40.9605C213.464 40.2188 222.633 34.73 224.365 24.1351C225.433 17.6059 223.033 11.259 220.832 7.0841C219.079 3.75228 216.949 0.662862 214.887 -2.3244C213.726 -4.00595 212.528 -5.74529 211.421 -7.49241C208.701 -11.7805 206.448 -16.3479 204.702 -21.1164C198.56 -37.9646 199.022 -56.5353 206.01 -73.4095C206.928 -75.6366 207.976 -77.8584 209.126 -80.0135C218.578 -97.7045 234.902 -111.891 255.095 -119.958L255.301 -119.443C235.228 -111.424 219.004 -97.3283 209.618 -79.751C208.477 -77.6104 207.437 -75.4052 206.526 -73.1944C199.593 -56.4493 199.132 -38.0201 205.227 -21.3033C206.958 -16.5718 209.193 -12.04 211.893 -7.78586C212.993 -6.04707 214.19 -4.3135 215.348 -2.63336C217.417 0.367296 219.558 3.47056 221.327 6.83178C223.567 11.0818 226.008 17.5497 224.916 24.2304C223.416 33.4036 216.498 38.8526 209.253 40.7938Z" fill="#0047FF" fill-opacity="0.5"/>
</g>
<g style="mix-blend-mode:screen" opacity="0.38">
<path d="M208.78 40.4343C207.98 40.6491 207.169 40.821 206.351 40.9493C197.453 42.334 189.083 39.538 181.373 36.3098C180.498 35.9427 179.608 35.5672 178.703 35.1833C170.962 31.9003 162.189 28.1731 152.762 27.4281C145.233 26.8348 138 28.4917 131.005 30.093C121.064 32.3692 111.675 34.5194 101.975 30.4541C95.0982 27.5723 89.4236 21.9174 83.9347 16.4487C82.9736 15.4906 82.0103 14.5321 81.0409 13.5855C77.485 10.1228 73.9754 7.11754 70.8911 4.89252C67.7885 2.64873 64.7614 0.994556 62.1469 0.107568C57.296 -1.53901 54.6941 -1.49498 49.5079 -1.40649C48.5852 -1.39105 47.5849 -1.37334 46.4789 -1.36545L45.91 -1.35931C45.6265 -1.35649 45.3361 -1.35284 45.0398 -1.35174C40.3291 -1.32576 34.4965 -1.93972 28.8575 -2.53037C25.9785 -2.83242 23.0021 -3.14443 20.2121 -3.36831C15.1737 -3.76964 8.61026 -4.03634 2.53693 -2.45844C0.687255 -1.97963 -1.11829 -1.34419 -2.86016 -0.559006C-14.7014 4.76285 -22.3464 18.0549 -21.4531 31.7655L-22.0046 31.802C-22.9132 17.8648 -15.1345 4.34938 -3.08829 -1.06449C-1.31749 -1.86247 0.517984 -2.50834 2.39828 -2.99511C8.54874 -4.59264 15.1713 -4.32838 20.2539 -3.91935C23.0502 -3.69509 26.0298 -3.38289 28.9119 -3.08065C34.5361 -2.49121 40.3549 -1.88281 45.0348 -1.90465L45.9009 -1.91214L46.4717 -1.91881C47.5765 -1.9274 48.5752 -1.94363 49.4957 -1.95952C54.5764 -2.04962 57.3773 -2.0965 62.3149 -0.418542C64.9874 0.488954 68.0646 2.16884 71.2138 4.44033C74.3186 6.68047 77.8497 9.70469 81.4263 13.1865C82.4007 14.1328 83.3607 15.0943 84.3242 16.0538C89.775 21.4843 95.4114 27.0999 102.188 29.9407C111.723 33.9369 121.028 31.8062 130.88 29.5505C137.915 27.9397 145.19 26.2736 152.803 26.8701C162.318 27.6172 171.136 31.3644 178.916 34.6678C179.817 35.0505 180.706 35.4245 181.586 35.7933C189.223 38.9916 197.5 41.7641 206.266 40.3982C213.547 39.2642 222.617 34.0308 224.217 23.0125C225.147 16.6121 222.866 10.3622 220.788 6.24482C219.163 3.02092 217.206 0.00970542 215.314 -2.89955C214.186 -4.63498 213.02 -6.43037 211.95 -8.23195C209.415 -12.4936 207.35 -17.018 205.791 -21.7255C200.353 -38.2442 201.477 -56.2733 208.964 -72.4952C209.939 -74.6221 211.045 -76.7417 212.243 -78.7925C222.014 -95.4781 238.39 -108.809 258.347 -116.325L258.543 -115.807C238.702 -108.334 222.429 -95.0895 212.72 -78.5123C211.531 -76.4774 210.436 -74.374 209.465 -72.2627C202.038 -56.169 200.921 -38.2832 206.316 -21.898C207.862 -17.2303 209.91 -12.7442 212.425 -8.51867C213.488 -6.72663 214.651 -4.93578 215.776 -3.20465C217.676 -0.280083 219.642 2.74332 221.28 5.99545C223.393 10.1827 225.714 16.5516 224.763 23.0907C223.297 33.2108 215.704 38.5791 208.78 40.4343Z" fill="#0047FF" fill-opacity="0.5"/>
</g>
<g style="mix-blend-mode:screen" opacity="0.43">
<path d="M208.326 40.1769C208.05 40.2508 207.775 40.319 207.501 40.3813C200.431 42.0027 193.127 41.1124 183.079 37.4053C181.762 36.9204 180.414 36.4059 179.038 35.8796C171.755 33.1004 163.5 29.9469 154.74 29.1551C147.557 28.5043 140.618 29.7631 133.905 30.9817C123.917 32.7967 114.484 34.5096 104.892 30.1197C98.5184 27.2039 93.1843 21.9245 88.024 16.8097C86.7064 15.5051 85.3437 14.155 83.9795 12.8609C80.3994 9.46962 76.7756 6.56087 73.4976 4.4506C70.236 2.3514 67.1002 0.944763 64.4257 0.391156C60.4599 -0.438701 58.0477 -0.0632966 54.71 0.459143C53.1007 0.710075 51.2782 0.995468 48.9532 1.20431L48.8809 1.21131C48.4414 1.25077 47.9858 1.29147 47.5123 1.32667C41.6476 1.75768 34.2091 0.873462 27.0059 0.0220004C25.4733 -0.159691 23.9588 -0.339035 22.4865 -0.502907C16.6875 -1.15267 10.5122 -1.58106 4.67151 -0.357055C2.78966 0.0326971 0.945791 0.587436 -0.838734 1.30073C-12.9694 6.13043 -21.0076 19.6268 -19.9548 33.3873L-20.5061 33.432C-21.5786 19.4367 -13.3931 5.70618 -1.04509 0.784259C0.769655 0.0588046 2.64478 -0.505344 4.55854 -0.90164C10.4787 -2.13663 16.7011 -1.7054 22.5486 -1.05525C24.0218 -0.891633 25.5373 -0.712548 27.0721 -0.530409C34.2441 0.320126 41.6606 1.19892 47.4727 0.771684C47.9425 0.737516 48.3949 0.696626 48.8312 0.656979L48.9035 0.649976C51.2107 0.44385 53.0253 0.163661 54.6245 -0.0907192C58.0209 -0.620659 60.4755 -1.00329 64.5393 -0.153355C67.2795 0.418705 70.4819 1.85077 73.7989 3.98767C77.116 6.12456 80.7576 9.04605 84.3617 12.4618C85.7291 13.7602 87.0943 15.1117 88.4101 16.425C93.5352 21.5008 98.8353 26.7491 105.119 29.6252C114.553 33.9419 123.904 32.244 133.804 30.4454C140.551 29.2204 147.529 27.9525 154.787 28.6119C163.624 29.415 171.916 32.5792 179.232 35.3711C180.608 35.8956 181.953 36.4099 183.268 36.895C193.21 40.5607 200.418 41.4458 207.375 39.8508C214.554 38.2041 222.706 32.6264 224.063 21.903C224.855 15.6333 222.691 9.47877 220.737 5.41896C219.242 2.31069 217.461 -0.61176 215.737 -3.44031C214.637 -5.23994 213.504 -7.10203 212.472 -8.9682C210.123 -13.2014 208.245 -17.6796 206.873 -22.3225C202.131 -38.5147 203.924 -56.0058 211.913 -71.5689C212.949 -73.5979 214.108 -75.6112 215.354 -77.5576C225.427 -93.2372 241.851 -105.704 261.597 -112.677L261.781 -112.155C242.15 -105.223 225.828 -92.8294 215.821 -77.2581C214.582 -75.3274 213.433 -73.3279 212.405 -71.3164C204.477 -55.8779 202.702 -38.5317 207.404 -22.4781C208.702 -18.0199 210.571 -13.5655 212.956 -9.23384C213.982 -7.37843 215.114 -5.52141 216.209 -3.72652C217.938 -0.89324 219.728 2.04644 221.235 5.17938C223.222 9.3055 225.422 15.5678 224.611 21.9726C223.274 32.5606 215.474 38.2617 208.326 40.1769Z" fill="#0047FF" fill-opacity="0.5"/>
</g>
<g style="mix-blend-mode:screen" opacity="0.48">
<path d="M207.506 40.1443C200.925 41.9076 193.855 41.3882 184.787 38.5051C182.987 37.9347 181.162 37.3131 179.224 36.6496C172.448 34.3384 164.766 31.7187 156.716 30.887C149.91 30.1845 143.297 31.0654 136.901 31.9169C126.829 33.2578 117.313 34.5252 107.806 29.7912C101.886 26.8443 96.8706 21.8804 92.0196 17.0783C90.3644 15.4398 88.6546 13.7438 86.9174 12.1417C83.2962 8.80059 79.5576 5.98959 76.106 4.01546C72.6831 2.0563 69.4347 0.89824 66.7091 0.661205C63.1532 0.358174 60.9948 1.06942 58.2626 1.96841C56.424 2.57438 54.3392 3.26074 51.4319 3.76367C50.9711 3.84282 50.492 3.92277 49.9911 3.99415C43.1612 4.96607 33.9831 3.66202 25.8818 2.51035L24.7653 2.35211C18.9206 1.52401 12.7202 0.794312 6.8057 1.73521C4.89214 2.03565 3.00991 2.50965 1.1823 3.15134C-11.2231 7.50144 -19.665 21.1976 -18.4527 35.0113L-19.006 35.0565C-20.2398 20.9973 -11.6392 7.05559 0.999709 2.62748C2.85864 1.97468 4.7731 1.49239 6.71944 1.18657C12.708 0.234043 18.9561 0.968494 24.8427 1.80289L25.9592 1.96113C34.0234 3.10521 43.1635 4.40194 49.9113 3.44274C50.4075 3.37264 50.8805 3.29328 51.3352 3.21471C54.2034 2.71919 56.2721 2.03817 58.0888 1.43909C60.8818 0.520737 63.0867 -0.209156 66.7549 0.105995C69.5592 0.344607 72.8865 1.52791 76.3788 3.52718C79.8711 5.52645 83.6394 8.35941 87.2919 11.7292C89.0333 13.3395 90.7528 15.037 92.4081 16.6796C97.4526 21.6699 102.217 26.3838 108.051 29.2906C117.41 33.9479 126.842 32.6921 136.825 31.3676C143.254 30.5115 149.9 29.6259 156.77 30.3357C164.883 31.1732 172.596 33.8042 179.4 36.1195C181.341 36.781 183.164 37.4051 184.956 37.9756C194.439 40.9978 201.696 41.3982 208.49 39.2839C215.21 37.1948 222.791 31.2354 223.92 20.771C224.58 14.6346 222.532 8.5746 220.697 4.57049C219.334 1.59058 217.728 -1.22738 216.173 -3.96195C215.104 -5.83911 214.001 -7.77795 213.007 -9.71935C210.784 -14.079 209.089 -18.5274 207.967 -22.9391C203.913 -38.8097 206.365 -55.7584 214.873 -70.6623C215.971 -72.5914 217.184 -74.5029 218.48 -76.3419C228.835 -90.9999 245.306 -102.615 264.859 -109.049L265.032 -108.522C245.591 -102.126 229.22 -90.5817 218.932 -76.0222C217.648 -74.1986 216.443 -72.3017 215.355 -70.3875C206.918 -55.6088 204.485 -38.8075 208.504 -23.0758C209.615 -18.7035 211.296 -14.2945 213.5 -9.9709C214.488 -8.04148 215.589 -6.10598 216.654 -4.23625C218.213 -1.49521 219.827 1.33782 221.201 4.34072C223.063 8.40641 225.144 14.5689 224.471 20.8305C223.318 31.5599 215.547 37.6712 208.659 39.8114C208.275 39.9303 207.89 40.0413 207.506 40.1443Z" fill="#0047FF" fill-opacity="0.5"/>
</g>
<g style="mix-blend-mode:screen" opacity="0.52">
<path d="M206.403 40.3799C200.578 41.9409 194.281 41.6758 186.498 39.6003C184.169 38.9808 181.77 38.2515 179.228 37.4801C173.015 35.5969 165.973 33.4607 158.692 32.6157C152.306 31.8739 146.062 32.3943 140.026 32.901C129.824 33.7544 120.189 34.5611 110.724 29.4573C105.223 26.4901 100.716 22.012 95.9467 17.2716C93.9813 15.3175 91.9463 13.2955 89.8592 11.4173C86.2378 8.16383 82.2809 5.37628 78.7158 3.5706C75.1283 1.75033 71.7685 0.841538 68.9981 0.932804C65.6295 1.04421 63.5668 2.12437 61.1827 3.37308C59.2754 4.37243 57.1198 5.50532 53.9148 6.32701C53.4552 6.44502 52.9755 6.56118 52.4725 6.66711C45.441 8.14736 35.6636 6.69378 27.0508 5.21661C20.4945 4.08881 14.6074 3.20615 8.94824 3.83551C7.00349 4.04652 5.08288 4.43973 3.21169 5.00998C-9.67217 8.93506 -18.3392 22.5288 -16.944 36.6334L-17.4946 36.6882C-18.9191 22.3288 -10.0859 8.48241 3.04518 4.48077C4.94931 3.90113 6.90351 3.50098 8.88223 3.28555C14.6127 2.64945 20.5412 3.53649 27.1396 4.67155C35.7018 6.14063 45.4173 7.58608 52.3533 6.12626C52.8477 6.02264 53.3242 5.90628 53.7723 5.79137C56.9086 4.98604 59.0396 3.86491 60.9227 2.88334C63.3681 1.60174 65.4793 0.495182 68.9767 0.380166C71.8409 0.285403 75.2935 1.21774 78.9625 3.07696C82.6315 4.93617 86.5171 7.67278 90.2257 11.0059C92.3251 12.8952 94.3641 14.9203 96.331 16.8802C101.072 21.5921 105.551 26.0417 110.981 28.9712C120.3 33.9946 129.857 33.1965 139.974 32.3504C146.04 31.8428 152.313 31.3179 158.753 32.0658C166.087 32.9162 173.149 35.0602 179.386 36.9515C181.923 37.721 184.318 38.4485 186.638 39.0653C195.834 41.5182 202.92 41.4131 209.599 38.7273C212.634 37.502 222.63 32.5241 223.762 19.6503C224.18 14.9024 223.1 9.39685 220.641 3.73238C219.413 0.895785 217.981 -1.81022 216.601 -4.42897C215.559 -6.39564 214.484 -8.42982 213.527 -10.4636C211.49 -14.8172 209.982 -19.2202 209.049 -23.5484C205.672 -39.103 208.788 -55.5105 217.823 -69.7477C218.98 -71.5773 220.247 -73.3847 221.593 -75.1186C232.354 -88.9543 248.445 -99.4303 268.109 -105.411L268.27 -104.882C248.711 -98.933 232.721 -88.523 222.03 -74.7783C220.695 -73.0577 219.437 -71.2659 218.291 -69.4497C209.335 -55.3355 206.245 -39.0752 209.592 -23.6639C210.515 -19.3783 212.013 -15.014 214.03 -10.6972C214.984 -8.67689 216.053 -6.6477 217.091 -4.68603C218.48 -2.05921 219.916 0.657805 221.153 3.51381C223.649 9.26119 224.743 14.8587 224.317 19.7003C223.157 32.8887 212.92 37.9921 209.81 39.2466C208.698 39.6926 207.56 40.0711 206.403 40.3799Z" fill="#0047FF" fill-opacity="0.5"/>
</g>
<g style="mix-blend-mode:screen" opacity="0.57">
<path d="M205.477 40.7672C200.371 42.1353 194.752 42.0956 188.208 40.6978C185.291 40.0722 182.23 39.2492 178.989 38.3765C173.146 36.8042 167.102 35.1745 160.668 34.3456C154.756 33.5807 148.94 33.7794 143.313 33.9644C132.918 34.3121 123.103 34.6405 113.635 29.1264C108.521 26.1463 104.286 21.9074 99.8066 17.418C97.5543 15.1616 95.224 12.8294 92.7925 10.6963C89.1128 7.4749 85.0377 4.78805 81.3188 3.13073C77.5668 1.45756 74.0951 0.792014 71.2774 1.20292C67.978 1.68417 66.0432 3.10712 63.8031 4.75096C61.8969 6.15387 59.7359 7.74353 56.3884 8.8867C55.8704 9.06361 55.3981 9.21079 54.9449 9.33738C47.7408 11.346 37.4707 9.71745 29.3278 8.07624L28.8978 7.98544C22.7114 6.74307 16.8667 5.5616 11.084 5.93355C9.10857 6.05508 7.14961 6.36781 5.23456 6.86733L5.08178 6.90827C-7.98563 10.4097 -16.9905 24.1455 -15.4471 38.2608L-15.9985 38.321C-17.5745 23.9414 -8.3871 9.94136 4.93397 6.37199L5.09059 6.33003C7.03988 5.82143 9.03392 5.50311 11.0447 5.37953C16.9043 5.00243 22.7826 6.19034 29.0033 7.44927L29.4319 7.5343C37.5149 9.16372 47.7197 10.783 54.7966 8.80328C55.2405 8.68433 55.7013 8.53614 56.2087 8.36207C59.4761 7.24654 61.5088 5.751 63.4753 4.30411C65.6785 2.68357 67.7606 1.15316 71.1966 0.65177C74.1173 0.225618 77.6952 0.906999 81.542 2.61866C85.3102 4.30604 89.4364 7.02246 93.1559 10.2806C95.6017 12.4253 97.938 14.7683 100.196 17.0272C104.652 21.49 108.86 25.7052 113.917 28.6472C123.243 34.0808 132.984 33.7546 143.297 33.4092C148.945 33.2205 154.785 33.0248 160.741 33.7953C167.215 34.6363 173.275 36.2638 179.136 37.8416C182.37 38.711 185.423 39.5329 188.326 40.1551C197.285 42.0752 204.193 41.4667 210.716 38.1736C214.317 36.3568 222.782 30.8052 223.617 18.5303C223.937 13.8252 222.922 8.56497 220.599 2.89388C219.506 0.219619 218.252 -2.34935 217.038 -4.83861C216.024 -6.91581 214.978 -9.0649 214.057 -11.2071C212.205 -15.5527 210.885 -19.9133 210.139 -24.1577C207.433 -39.4006 211.212 -55.2686 220.779 -68.8347C221.994 -70.5645 223.318 -72.2678 224.713 -73.8963C235.701 -86.6935 251.831 -96.3334 271.365 -101.776L271.514 -101.242C252.087 -95.8301 236.048 -86.2487 225.134 -73.5362C223.75 -71.921 222.438 -70.2311 221.232 -68.5153C211.744 -55.0714 208.003 -39.3547 210.679 -24.2548C211.419 -20.0511 212.724 -15.7372 214.561 -11.4256C215.472 -9.3003 216.518 -7.15339 217.53 -5.0817C218.748 -2.58744 220.007 -0.00721976 221.107 2.68357C223.461 8.43379 224.491 13.7765 224.164 18.567C223.307 31.1271 214.645 36.8075 210.96 38.6677C209.209 39.5544 207.372 40.258 205.477 40.7672Z" fill="#0047FF" fill-opacity="0.5"/>
</g>
<g style="mix-blend-mode:screen" opacity="0.62">
<path d="M204.582 41.3788C200.203 42.5523 195.398 42.6767 189.916 41.7947C186.324 41.2118 182.489 40.2984 178.428 39.3263C173.366 38.1153 168.13 36.8623 162.641 36.0771C157.279 35.3092 151.968 35.219 146.831 35.1314C136.156 34.9487 126.073 34.7762 116.548 28.7952C111.798 25.8131 107.827 21.7912 103.622 17.533C101.102 14.9806 98.4957 12.3411 95.7271 9.97587C91.9877 6.78182 87.7929 4.19401 83.9214 2.68986C80.0021 1.16455 76.4167 0.743739 73.5537 1.46968C70.2581 2.29917 68.3255 4.16862 66.276 6.14357C64.3113 8.03504 62.2812 9.99036 58.8624 11.4514C58.355 11.6677 57.883 11.8509 57.4185 12.0124C49.8212 14.6477 39.0451 12.6644 31.6074 10.9413L29.9818 10.563C24.1851 9.20698 18.7104 7.92638 13.2169 8.03232C11.2114 8.06135 9.21401 8.29315 7.25523 8.7242C-6.14418 11.6707 -15.6558 25.6484 -13.9509 39.8863L-14.5016 39.9525C-16.2394 25.438 -6.53127 11.1831 7.13579 8.18238C9.13093 7.74503 11.1652 7.51058 13.2076 7.48263C18.7696 7.37482 24.2773 8.66307 30.1082 10.0275L31.7327 10.406C39.1023 12.1092 49.7794 14.0768 57.2379 11.488C57.6903 11.3318 58.1511 11.1527 58.6453 10.9409C61.9719 9.52003 63.9652 7.60033 65.8929 5.74351C67.9975 3.7167 69.9936 1.80032 73.4189 0.931975C76.3939 0.178095 80.0957 0.60686 84.1229 2.17333C88.048 3.69709 92.298 6.32163 96.0896 9.55318C98.8758 11.9343 101.49 14.5819 104.019 17.1433C108.201 21.3797 112.15 25.3769 116.845 28.3252C126.239 34.2248 136.247 34.3957 146.84 34.5778C151.994 34.6648 157.324 34.7564 162.72 35.5285C168.235 36.3173 173.481 37.5734 178.556 38.7871C182.609 39.7615 186.434 40.6724 190.004 41.2468C198.66 42.6361 205.594 41.4879 211.82 37.6211C215.93 35.0684 222.911 29.0473 223.46 17.4081C223.678 12.8169 222.7 7.65481 220.546 2.05404C219.591 -0.436667 218.511 -2.84948 217.467 -5.18227C216.479 -7.39001 215.455 -9.67776 214.578 -11.9523C212.912 -16.2955 211.783 -20.6071 211.22 -24.7686C209.172 -39.7122 213.614 -55.0366 223.73 -67.9194C225.004 -69.5507 226.383 -71.1501 227.827 -72.6723C239.002 -84.4234 255.177 -93.2305 274.614 -98.1369L274.75 -97.5995C255.407 -92.7195 239.33 -83.9705 228.229 -72.2906C226.797 -70.781 225.43 -69.195 224.165 -67.5776C214.148 -54.815 209.745 -39.638 211.769 -24.8396C212.326 -20.7197 213.446 -16.4497 215.096 -12.1478C215.967 -9.8862 216.942 -7.70986 217.973 -5.40557C219.021 -3.06534 220.104 -0.645111 221.063 1.85975C223.243 7.53299 224.237 12.7742 224.015 17.4387C223.45 29.3344 216.316 35.4853 212.114 38.0956C209.78 39.5569 207.242 40.6634 204.582 41.3788Z" fill="#0047FF" fill-opacity="0.5"/>
</g>
<g style="mix-blend-mode:screen" opacity="0.67">
<path d="M203.891 42.1502C200.197 43.1402 196.157 43.3748 191.628 42.8894C187.251 42.4213 182.474 41.3955 177.425 40.3079C173.295 39.419 169.025 38.5008 164.619 37.8074C159.912 37.0679 155.22 36.7521 150.681 36.4467C139.602 35.7004 129.137 34.9957 119.464 28.464C115.063 25.4906 111.17 21.4948 107.408 17.6292C104.635 14.782 101.767 11.8374 98.6672 9.25708C94.8586 6.08881 90.5489 3.60284 86.5306 2.25032C82.4429 0.873137 78.7476 0.699167 75.8339 1.7354C72.5126 2.91893 70.6459 5.17251 68.6702 7.5573C66.7612 9.86035 64.7878 12.2424 61.3377 14.0137C60.8517 14.2634 60.38 14.4825 59.8955 14.6845C54.0772 17.0872 45.322 16.7928 33.8888 13.8059C33.0102 13.5764 32.1363 13.3445 31.2669 13.1105C25.7871 11.6458 20.611 10.2615 15.355 10.1317C13.3196 10.0709 11.2835 10.2222 9.27953 10.5832C-4.59841 13.0851 -14.3434 26.9605 -12.449 41.5134L-12.9982 41.5853C-14.9296 26.7405 -4.97787 12.5913 9.18098 10.0347C11.222 9.66728 13.2958 9.5135 15.3688 9.57586C20.689 9.70696 25.8958 11.0985 31.4129 12.5717C32.2826 12.8043 33.1555 13.0357 34.0314 13.266C45.3471 16.2215 53.982 16.5245 59.6824 14.1698C60.153 13.9737 60.6117 13.7601 61.0844 13.518C64.4335 11.7965 66.3678 9.46093 68.2409 7.20049C70.2637 4.75674 72.1801 2.44657 75.645 1.21115C78.6758 0.131205 82.4988 0.309078 86.7044 1.72267C90.7795 3.09499 95.1623 5.61594 99.0188 8.82806C102.142 11.4299 105.019 14.3852 107.801 17.2424C111.718 21.2645 115.417 25.0639 119.772 28.0044C129.321 34.4529 139.71 35.1533 150.721 35.892C155.271 36.1975 159.977 36.5148 164.706 37.2585C169.128 37.9538 173.407 38.874 177.544 39.7649C182.582 40.8493 187.343 41.8783 191.689 42.3373C200.215 43.2465 206.967 41.5755 212.934 37.0702C216.677 34.2448 223.004 27.7869 223.311 16.287C223.431 11.8251 222.484 6.75373 220.499 1.21361C219.683 -1.0629 218.778 -3.28674 217.904 -5.43653C216.894 -7.91858 215.94 -10.2621 215.106 -12.6985C213.63 -17.0348 212.688 -21.302 212.308 -25.3806C210.919 -40.034 216.026 -54.8165 226.687 -67.0058C228.027 -68.5392 229.456 -70.0338 230.948 -71.4503C242.422 -82.3172 258.211 -90.0742 277.869 -94.4998L277.991 -93.9597C258.43 -89.5529 242.731 -81.8459 231.326 -71.0509C229.848 -69.6474 228.426 -68.165 227.101 -66.6448C216.537 -54.5702 211.483 -39.9367 212.857 -25.4321C213.235 -21.3958 214.166 -17.1721 215.627 -12.8774C216.457 -10.4563 217.408 -8.11908 218.416 -5.64569C219.293 -3.48968 220.201 -1.26058 221.018 1.02702C223.027 6.63193 223.983 11.7707 223.863 16.3019C223.55 28.0344 217.089 34.628 213.265 37.5132C210.357 39.7089 207.269 41.245 203.891 42.1502Z" fill="#0047FF" fill-opacity="0.5"/>
</g>
<g style="mix-blend-mode:screen" opacity="0.71">
<path d="M203.422 43.0536C200.358 43.8746 197.023 44.1759 193.338 43.9849C188.011 43.7081 182.063 42.5276 175.768 41.2753C172.791 40.6842 169.713 40.0729 166.59 39.5353C162.704 38.8656 158.794 38.4133 155.016 37.9749C143.346 36.6206 132.324 35.3409 122.376 28.1297C118.308 25.1804 114.675 21.3872 111.162 17.7172C108.15 14.5725 105.036 11.3231 101.602 8.53453C97.7235 5.38915 93.2955 2.99979 89.1335 1.80633C84.8769 0.586696 81.0636 0.652446 78.1039 1.99768C74.7302 3.53522 72.9208 6.18346 71.0085 8.99321C69.1661 11.6987 67.2606 14.4994 63.8094 16.5698C63.3367 16.8541 62.851 17.1171 62.3709 17.3508C54.9534 20.9186 44.0243 18.9485 36.1686 16.6648C35.0083 16.3277 33.8553 15.9794 32.7074 15.6348C27.4858 14.0577 22.5546 12.5686 17.4924 12.2283C15.4279 12.0765 13.3531 12.1465 11.3035 12.4371C-2.8028 14.448 -12.9988 28.5081 -10.9485 43.1356L-11.4973 43.2127C-13.5881 28.2879 -3.18369 13.9412 11.2244 11.8845C13.3122 11.5888 15.4256 11.5174 17.5286 11.6716C22.6526 12.0159 27.6142 13.5144 32.8651 15.1012C34.0104 15.4474 35.1622 15.795 36.3205 16.1327C44.0872 18.3877 54.8691 20.3427 62.1251 16.8521C62.5922 16.6239 63.0628 16.3701 63.5224 16.0945C66.868 14.0834 68.7358 11.3381 70.5479 8.68086C72.5067 5.80612 74.3557 3.09061 77.8723 1.49105C80.9522 0.0909455 84.8986 0.0142747 89.2837 1.27159C93.5151 2.48561 98.0126 4.90784 101.949 8.10174C105.409 10.913 108.536 14.1784 111.56 17.3354C115.217 21.1553 118.672 24.7625 122.699 27.6826C132.529 34.8088 143.486 36.0793 155.078 37.4257C158.863 37.8651 162.777 38.3196 166.682 38.9913C169.813 39.5289 172.894 40.1416 175.874 40.7338C182.149 41.9792 188.075 43.1565 193.363 43.431C201.809 43.8692 208.38 41.6737 214.042 36.5231C218.168 32.7687 223.099 26.0153 223.156 15.1655C223.177 10.833 222.267 5.86092 220.447 0.373554C219.776 -1.65244 219.044 -3.64745 218.337 -5.57725C217.35 -8.26726 216.42 -10.81 215.629 -13.4457C214.346 -17.7738 213.593 -21.9946 213.393 -25.9928C212.653 -40.3657 218.424 -54.607 229.641 -66.0943C231.035 -67.5258 232.523 -68.9179 234.065 -70.2292C245.635 -80.0443 261.467 -86.9876 281.122 -90.8655L281.23 -90.3216C261.668 -86.4605 245.921 -79.5606 234.424 -69.8073C232.895 -68.5065 231.419 -67.1272 230.037 -65.707C218.929 -54.3304 213.215 -40.237 213.945 -26.0192C214.144 -22.0649 214.888 -17.8871 216.16 -13.6023C216.942 -10.9829 217.871 -8.44931 218.857 -5.76699C219.566 -3.83386 220.3 -1.83499 220.971 0.200155C222.811 5.74512 223.732 10.7812 223.708 15.1701C223.651 26.2209 218.622 33.1046 214.413 36.9347C211.114 39.9388 207.51 41.9584 203.422 43.0536Z" fill="#0047FF" fill-opacity="0.5"/>
</g>
<g style="mix-blend-mode:screen" opacity="0.76">
<path d="M203.152 44.0697C200.665 44.736 197.978 45.0668 195.049 45.0789C188.513 45.1057 181.028 43.662 173.105 42.134C171.607 41.8453 170.094 41.5563 168.566 41.2671C165.747 40.7398 162.895 40.2802 160.139 39.8361C147.58 37.8124 135.716 35.8999 125.292 27.7988C121.548 24.8872 118.17 21.2944 114.904 17.817C111.662 14.366 108.309 10.7974 104.539 7.81048C100.589 4.6873 96.0431 2.39646 91.738 1.36084C87.3108 0.296121 83.3807 0.606415 80.3743 2.25777C76.9325 4.14838 75.1811 7.21274 73.3268 10.4582C71.5563 13.5586 69.7242 16.764 66.2789 19.1295C65.8183 19.4476 65.3333 19.7475 64.8382 20.0213C57.2874 24.1678 46.3185 22.0414 38.4454 19.5275C37.045 19.0786 35.6552 18.6113 34.2714 18.1435C29.2615 16.453 24.5337 14.8549 19.6262 14.3227C17.533 14.0817 15.4198 14.071 13.3244 14.2908C6.61509 15.0058 0.275524 18.6341 -4.05675 24.2423C-8.56398 30.0776 -10.5279 37.5567 -9.44812 44.761L-9.99569 44.8429C-11.0987 37.4902 -9.09348 29.8579 -4.49689 23.8987C-0.0739778 18.1714 6.40255 14.4663 13.2727 13.7329C15.4074 13.5086 17.5602 13.519 19.6927 13.764C24.6565 14.3099 29.4124 15.9171 34.452 17.6182C35.8331 18.0836 37.2203 18.5526 38.6179 18.9991C46.3862 21.4793 57.1938 23.5841 64.5723 19.5363C65.0502 19.2712 65.5192 18.9807 65.965 18.6728C69.3051 16.3798 71.1045 13.2294 72.8454 10.1833C74.7378 6.86896 76.5277 3.73661 80.1064 1.77322C83.2386 0.0531434 87.304 -0.274861 91.8667 0.822585C96.2479 1.87696 100.87 4.20394 104.881 7.3768C108.685 10.3887 112.051 13.9723 115.307 17.4381C118.563 20.9038 121.922 24.48 125.63 27.362C135.943 35.3766 147.738 37.2775 160.226 39.2894C162.986 39.7346 165.839 40.194 168.667 40.7231C170.194 41.0091 171.705 41.3027 173.209 41.5901C181.105 43.1131 188.563 44.5514 195.046 44.5254C203.457 44.4906 209.849 41.7756 215.157 35.978C218.839 31.9566 223.188 24.8871 223.007 14.0454C222.935 9.80684 222.082 5.06047 220.4 -0.465899C219.875 -2.19309 219.313 -3.90614 218.771 -5.56255C217.803 -8.51647 216.889 -11.3055 216.155 -14.1911C215.05 -18.5712 214.502 -22.6307 214.477 -26.6026C214.38 -40.7079 220.814 -54.4069 232.595 -65.1758C234.049 -66.5091 235.593 -67.7964 237.184 -69.0014C248.948 -77.8938 264.384 -83.8544 284.375 -87.2238L284.467 -86.6777C264.563 -83.3226 249.209 -77.3974 237.521 -68.5603C235.945 -67.3664 234.415 -66.09 232.977 -64.7671C221.313 -54.1049 214.942 -40.5524 215.038 -26.6057C215.061 -22.6784 215.603 -18.6616 216.696 -14.326C217.425 -11.4595 218.336 -8.67891 219.301 -5.73459C219.849 -4.07538 220.411 -2.35944 220.933 -0.626424C222.634 4.94985 223.492 9.7461 223.565 14.037C223.75 25.0611 219.32 32.2573 215.57 36.3527C211.996 40.2504 207.949 42.7842 203.152 44.0697Z" fill="#0047FF" fill-opacity="0.5"/>
</g>
<g style="mix-blend-mode:screen" opacity="0.81">
<path d="M202.904 45.2025C200.894 45.7314 198.836 46.0564 196.761 46.1726C189.244 46.6313 180.439 45.0057 170.541 42.9993C169.241 42.7356 167.943 42.4759 166.647 42.2203C152.668 39.4499 139.464 36.8323 128.207 27.4669C124.782 24.618 121.659 21.2198 118.637 17.9334C115.173 14.1648 111.591 10.2684 107.476 7.09056C103.452 3.98817 98.79 1.79436 94.3433 0.918252C89.7452 0.0116033 85.7013 0.565657 82.6416 2.5218C79.1186 4.77413 77.4178 8.26175 75.6186 11.9509C73.9222 15.4321 72.1678 19.0309 68.7522 21.6841C68.2908 22.0439 67.8106 22.3789 67.3136 22.6877C59.2406 27.6715 47.1966 24.6382 40.7308 22.3879C39.1247 21.8283 37.5101 21.2255 35.948 20.6417C31.112 18.8356 26.5448 17.1295 21.7683 16.418C19.6472 16.088 17.4957 15.9976 15.3544 16.1483C8.46454 16.6428 1.95323 20.1605 -2.51152 25.7969C-7.12462 31.6215 -9.10644 39.126 -7.94202 46.3849L-8.48926 46.4718C-9.67143 39.0621 -7.65009 31.3976 -2.94084 25.4515C1.62084 19.6963 8.27391 16.1005 15.322 15.5893C17.5044 15.437 19.697 15.5303 21.8587 15.8673C26.692 16.5873 31.5005 18.3833 36.1503 20.1208C37.7088 20.7025 39.3212 21.3048 40.9217 21.8629C47.2914 24.0812 59.1535 27.0737 67.0289 22.2169C67.5086 21.9191 67.972 21.5959 68.4171 21.2485C71.7342 18.6732 73.4589 15.1329 75.1295 11.709C76.9641 7.94445 78.6971 4.38847 82.3508 2.04754C85.5314 0.0126134 89.7176 -0.568199 94.4573 0.367458C98.9871 1.26149 103.738 3.48904 107.822 6.64451C111.976 9.85092 115.572 13.7664 119.052 17.5514C122.061 20.8245 125.172 24.2096 128.568 27.0343C139.717 36.3062 152.854 38.9138 166.761 41.6705C168.059 41.9278 169.358 42.1872 170.658 42.4487C180.517 44.449 189.285 46.0679 196.737 45.6125C205.045 45.1056 211.438 41.7763 216.284 35.4298C219.525 31.1846 223.297 23.8338 222.868 12.9217C222.705 8.80223 221.909 4.28058 220.363 -1.3101C219.987 -2.67216 219.598 -4.01734 219.211 -5.35195C218.261 -8.6371 217.362 -11.7404 216.694 -14.9414C215.787 -19.3096 215.423 -23.3255 215.579 -27.2184C216.114 -40.8675 223.399 -54.3703 235.567 -64.2642C237.084 -65.5008 238.683 -66.6844 240.32 -67.7814C252.206 -75.733 267.243 -80.7574 287.644 -83.5906L287.72 -83.0412C267.406 -80.2199 252.441 -75.2243 240.628 -67.3209C239.006 -66.2332 237.423 -65.0611 235.917 -63.8346C223.861 -54.0408 216.651 -40.6838 216.123 -27.194C215.967 -23.3467 216.328 -19.3742 217.226 -15.0519C217.89 -11.8713 218.786 -8.77382 219.733 -5.50309C220.12 -4.16464 220.51 -2.81946 220.886 -1.45426C222.444 4.17749 223.246 8.73958 223.41 12.903C223.846 23.9803 220.01 31.4511 216.714 35.769C213.034 40.5895 208.481 43.707 202.904 45.2025Z" fill="#0047FF" fill-opacity="0.5"/>
</g>
<g style="mix-blend-mode:screen" opacity="0.86">
<path d="M202.862 46.4323C201.421 46.8145 199.954 47.0926 198.473 47.2644C190.206 48.2432 180.259 46.4251 172.515 44.7275C157.398 41.4152 142.857 37.5757 131.121 27.133C128.012 24.3677 125.144 21.1709 122.369 18.08C118.688 13.9771 114.881 9.73494 110.413 6.36748C106.332 3.29476 101.549 1.20147 96.9466 0.47206C92.1677 -0.267669 88.0032 0.531947 84.9061 2.78247C81.295 5.40558 79.6454 9.32657 77.8989 13.4775C76.279 17.3287 74.6037 21.3112 71.2182 24.2458C70.7617 24.6452 70.2825 25.0178 69.783 25.3618C61.6038 30.9644 49.5035 27.6979 43.0132 25.2523C41.2307 24.5802 39.4435 23.8444 37.7087 23.1349C33.2222 21.2959 28.5843 19.3985 23.9072 18.5161C21.7576 18.0944 19.5667 17.9209 17.3776 17.9993C10.3174 18.2768 3.62804 21.6835 -0.97052 27.3548C-3.29781 30.211 -4.98991 33.5306 -5.93412 37.0925C-6.87833 40.6543 -7.05298 44.3767 -6.44643 48.0116L-6.99238 48.1033C-7.61127 44.3902 -7.43218 40.588 -6.46705 36.9498C-5.50191 33.3116 -3.77288 29.9211 -1.39511 27.004C3.30397 21.212 10.1414 17.7316 17.361 17.4454C19.5914 17.3655 21.8236 17.5413 24.014 17.9693C28.7424 18.8586 33.4081 20.7711 37.92 22.6208C39.6486 23.33 41.437 24.0624 43.2117 24.7324C48.3537 26.6698 61.205 30.5675 69.4737 24.9069C69.9559 24.5755 70.4189 24.2168 70.8603 23.8328C74.1479 20.9821 75.7981 17.0599 77.3944 13.2666C79.0929 9.22841 80.8494 5.05315 84.5863 2.33862C87.806 -0.000361811 92.1111 -0.832505 97.0371 -0.0703758C101.728 0.673233 106.599 2.80392 110.751 5.92951C115.266 9.32781 119.087 13.5922 122.787 17.7145C125.551 20.7941 128.409 23.979 131.495 26.7239C143.131 37.078 157.597 40.8944 172.639 44.1915C180.34 45.879 190.229 47.692 198.412 46.7192C206.762 45.7264 212.969 41.8595 217.397 34.8927C221.48 28.4641 223.273 20.6961 222.712 11.8096C222.395 6.75063 221.26 1.69062 220.312 -2.14416C220.087 -3.05136 219.859 -3.95245 219.634 -4.84708C218.694 -8.56252 217.807 -12.0727 217.218 -15.6804C216.513 -20.0377 216.331 -24.0089 216.666 -27.8227C217.828 -41.2331 225.796 -54.1789 238.525 -63.3402C240.1 -64.4762 241.754 -65.556 243.44 -66.5478C258.72 -75.5201 276.828 -78.4198 290.897 -79.9438L290.957 -79.3932C276.946 -77.8756 258.91 -74.9888 243.721 -66.0707C242.049 -65.0871 240.41 -64.0174 238.848 -62.8901C226.25 -53.8237 218.367 -41.022 217.217 -27.7737C216.888 -24.0066 217.067 -20.08 217.765 -15.7692C218.35 -12.1854 219.234 -8.68671 220.171 -4.97869C220.398 -4.08136 220.624 -3.18038 220.849 -2.27578C221.808 1.58803 222.947 6.67284 223.267 11.7752C223.827 20.7836 222.014 28.6611 217.867 35.1902C214.153 41.021 209.221 44.7275 202.862 46.4323Z" fill="#0047FF" fill-opacity="0.5"/>
</g>
<g style="mix-blend-mode:screen" opacity="0.9">
<path d="M202.751 47.7871C201.918 48.0102 201.062 48.1999 200.184 48.3562C193.408 49.5611 185.003 48.94 174.489 46.4577C163.194 43.7913 146.712 38.8515 134.037 26.803C131.241 24.1452 128.632 21.1584 126.108 18.2701C122.212 13.8127 118.185 9.20415 113.354 5.64722C109.252 2.63594 104.224 0.587533 99.5548 0.0286948C94.5942 -0.5511 90.3129 0.493054 87.1688 3.04463C83.4556 6.04021 81.8575 10.4069 80.1662 15.0293C78.6246 19.2417 77.0304 23.596 73.6855 26.8051C73.2321 27.2409 72.7531 27.6492 72.2511 28.028C70.5578 29.2889 68.6363 30.2096 66.5927 30.7392C58.684 32.8583 49.4791 29.8091 45.2921 28.1113C43.3569 27.3267 41.4137 26.4586 39.5338 25.619C35.1591 23.6666 30.6356 21.6469 26.0445 20.6086C23.8678 20.0969 21.6385 19.8433 19.4026 19.853C12.1774 19.8995 5.31726 23.1913 0.582052 28.8869C-4.24657 34.6951 -6.2638 42.2595 -4.94808 49.6334L-5.49274 49.7299C-6.83925 42.1912 -4.78038 34.4631 0.154448 28.5286C4.99516 22.7079 12.0076 19.3424 19.3972 19.295C21.6756 19.285 23.9472 19.5432 26.1654 20.0642C30.8132 21.1182 35.3663 23.1485 39.7608 25.1131C41.6329 25.9507 43.5763 26.8156 45.5012 27.5928C50.6608 29.6841 63.5583 33.8733 71.9161 27.581C72.4003 27.2152 72.8624 26.8209 73.3001 26.4005C76.5538 23.2818 78.1249 18.9872 79.6444 14.8343C81.2877 10.3442 82.9858 5.69735 86.8195 2.60973C90.0792 -0.0408192 94.5039 -1.12648 99.6136 -0.527935C104.377 0.041886 109.501 2.1273 113.676 5.19434C118.56 8.78536 122.608 13.4181 126.523 17.8982C129.038 20.7765 131.64 23.753 134.417 26.394C146.993 38.3537 163.383 43.2617 174.615 45.9111C185.058 48.3741 193.384 48.9945 200.085 47.8027C208.39 46.3256 214.589 41.7952 218.515 34.3345C221.986 27.7383 223.346 19.7731 222.559 10.6751C222.162 6.09197 221.22 1.39441 220.259 -2.99847L220.048 -3.96285C219.107 -8.24358 218.227 -12.2965 217.741 -16.4439C217.238 -20.7872 217.241 -24.7142 217.751 -28.4503C219.54 -41.6352 228.189 -54.0239 241.479 -62.4394C243.116 -63.4774 244.826 -64.4527 246.559 -65.3373C261.472 -72.939 278.982 -75.1585 294.148 -76.3211L294.193 -75.7686C279.083 -74.6045 261.637 -72.4023 246.812 -64.8448C245.091 -63.9664 243.399 -63.0032 241.778 -61.9713C228.626 -53.6443 220.069 -41.3988 218.3 -28.3801C217.797 -24.69 217.794 -20.8086 218.288 -16.511C218.774 -12.3916 219.649 -8.355 220.588 -4.08485L220.799 -3.12046C221.763 1.29093 222.711 6.00989 223.11 10.6234C223.906 19.8282 222.525 27.8917 219.005 34.5935C215.413 41.4315 209.953 45.8572 202.751 47.7871Z" fill="#0047FF" fill-opacity="0.5"/>
</g>
<g style="mix-blend-mode:screen" opacity="0.95">
<path d="M202.764 49.2279C202.476 49.3051 202.187 49.3823 201.896 49.4471C194.855 51.1203 186.298 50.6966 176.463 48.1882C165.465 45.4132 149.682 39.3958 136.951 26.4672C134.469 23.9468 132.124 21.1837 129.857 18.5122C125.749 13.6726 121.503 8.66824 116.285 4.92375C112.105 1.92293 106.955 -0.0206038 102.153 -0.418149C97.0316 -0.836431 92.6326 0.452515 89.4289 3.3085C85.6256 6.69396 84.0033 11.7275 82.4421 16.5973C80.9757 21.1635 79.4587 25.8866 76.1507 29.3639C75.7013 29.8373 75.2232 30.2827 74.7191 30.6973C66.0542 37.8116 52.8526 33.2598 47.5766 30.972C45.5094 30.0754 43.4322 29.0722 41.4246 28.1019C37.1423 26.0331 32.7136 23.8943 28.1865 22.7028C25.8206 22.0789 23.607 21.7541 21.4313 21.7056C14.0223 21.5346 6.97923 24.7281 2.10695 30.4655C-2.8121 36.2629 -4.83637 43.8395 -3.44156 51.2665L-3.98686 51.3683C-5.40994 43.782 -3.342 36.034 1.68762 30.1112C6.66725 24.244 13.8653 20.9833 21.446 21.1567C23.6698 21.2047 25.9215 21.5368 28.3295 22.1721C32.9087 23.3774 37.364 25.5266 41.667 27.6074C43.6709 28.5756 45.742 29.5752 47.799 30.4684C52.9795 32.7148 65.9413 37.1938 74.3698 30.2738C74.8562 29.8732 75.3178 29.4433 75.7519 28.9865C78.9732 25.6004 80.4698 20.9395 81.9169 16.432C83.5021 11.4868 85.1436 6.37496 89.0616 2.89489C92.3808 -0.0641613 96.9236 -1.40089 102.199 -0.970474C107.099 -0.564892 112.351 1.41916 116.609 4.47323C121.882 8.25759 126.151 13.2888 130.279 18.1537C132.538 20.8183 134.879 23.5733 137.346 26.078C149.985 38.9128 165.669 44.893 176.596 47.6518C186.344 50.1382 194.811 50.5613 201.764 48.9086C210.156 46.9144 216.169 41.8303 219.631 33.8005C222.513 27.1149 223.446 18.9604 222.407 9.56824C221.937 5.33128 221.119 0.995862 220.325 -3.19657L220.207 -3.82722C219.36 -8.32388 218.575 -12.7289 218.265 -17.1787C217.965 -21.5064 218.152 -25.3899 218.836 -29.0502C221.255 -42.0226 230.585 -53.8531 244.432 -61.5081C246.13 -62.4472 247.893 -63.3184 249.674 -64.0974C264.855 -70.7313 282.268 -71.9996 297.397 -72.6682L297.421 -72.1141C282.343 -71.4478 264.992 -70.1849 249.897 -63.5894C248.132 -62.8177 246.383 -61.9535 244.7 -61.0226C231.001 -53.4536 221.775 -41.7634 219.382 -28.9524C218.703 -25.3378 218.523 -21.5015 218.818 -17.2218C219.126 -12.8013 219.909 -8.41415 220.751 -3.93506L220.87 -3.30441C221.662 0.898669 222.482 5.2449 222.956 9.50257C224.01 18.9946 223.063 27.2426 220.142 34.0181C216.729 41.9378 210.885 47.0509 202.764 49.2279Z" fill="#0047FF" fill-opacity="0.5"/>
</g>
<g style="mix-blend-mode:screen">
<path d="M202.835 50.7469C184.622 55.6269 157.65 45.4067 139.868 26.1339C137.701 23.7856 135.629 21.2636 133.625 18.8242C129.308 13.571 124.843 8.13903 119.223 4.20237C111.3 -1.34748 98.9571 -3.45087 91.69 3.57216C87.7895 7.34423 86.2271 12.8552 84.7169 18.1842C83.1367 23.7627 81.5034 29.5358 77.1873 33.3708C68.1986 41.3599 53.9982 35.7478 49.8599 33.8361C47.678 32.8301 45.481 31.6871 43.3652 30.5861C37.0605 27.3109 30.542 23.9261 23.4599 23.5573C15.8648 23.1683 8.63448 26.2626 3.62833 32.0462C-1.37782 37.8298 -3.41097 45.4232 -1.94339 52.8873L-2.48741 52.994C-3.98801 45.3605 -1.91292 37.5931 3.207 31.6883C8.32692 25.7835 15.7197 22.6076 23.4854 23.0065C30.689 23.3716 37.263 26.791 43.6204 30.0933C45.7334 31.1878 47.9183 32.3279 50.0907 33.3292C54.1476 35.2061 68.0797 40.72 76.8183 32.9546C81.0127 29.2263 82.6252 23.5372 84.1838 18.0355C85.714 12.6352 87.2959 7.05102 91.3047 3.17575C98.7855 -4.05698 111.435 -1.92663 119.54 3.74884C125.223 7.72934 129.711 13.1911 134.052 18.4729C136.051 20.9053 138.118 23.4213 140.275 25.758C159.557 46.6553 189.688 56.8555 207.44 48.4858C216.132 44.3891 225.757 34.1165 222.251 8.44581C221.875 5.68378 221.401 2.86014 220.944 0.130115C219.294 -9.71452 217.589 -19.8945 219.924 -29.666C223.334 -43.9437 235.931 -56.6682 252.799 -62.8743C267.436 -68.2591 283.131 -68.8496 300.653 -69.0335L300.66 -68.4799C283.195 -68.2969 267.552 -67.7049 252.995 -62.355C236.299 -56.2123 223.835 -43.6381 220.467 -29.5387C218.16 -19.8763 219.855 -9.75239 221.493 0.037658C221.95 2.77274 222.424 5.6005 222.799 8.37124C226.352 34.3743 216.537 44.8112 207.68 48.9882C206.121 49.7174 204.499 50.3059 202.835 50.7469Z" fill="#0047FF" fill-opacity="0.5"/>
</g>
</g>
</g>
<defs>
<clipPath id="clip0_8239_8968">
<rect width="345.993" height="181.843" fill="white" transform="translate(-57.2178 -67.831) rotate(-15)"/>
</clipPath>
</defs>
</svg>
