<svg width="24" height="24" viewBox="0 0 24 24" fill="none" xmlns="http://www.w3.org/2000/svg">
<path d="M19.6869 3.4375H4.35938V18.4626H19.6869V3.4375Z" fill="white"/>
<path fill-rule="evenodd" clip-rule="evenodd" d="M24 12C24 18.6274 18.6274 24 12 24C5.3726 24 0 18.6274 0 12C0 5.37258 5.3726 0 12 0C18.6274 0 24 5.37258 24 12ZM8.59958 16.7751H6.27072C5.78138 16.7751 5.53963 16.7751 5.39222 16.6808C5.23305 16.5776 5.13575 16.4066 5.12395 16.218C5.11513 16.044 5.23598 15.8318 5.47772 15.4073L11.228 5.27168C11.4726 4.84128 11.5965 4.62609 11.7527 4.54649C11.9207 4.46103 12.1212 4.46103 12.2892 4.54649C12.4455 4.62609 12.5693 4.84128 12.814 5.27168L13.9961 7.33524L14.0021 7.34577C14.2664 7.80752 14.4004 8.04166 14.4589 8.28741C14.5238 8.55568 14.5238 8.83867 14.4589 9.10693C14.4 9.35458 14.2673 9.59042 13.999 10.0591L10.9786 15.3985L10.9708 15.4121C10.7047 15.8777 10.5699 16.1136 10.3831 16.2917C10.1797 16.4862 9.93501 16.6277 9.66674 16.7073C9.42207 16.7751 9.1479 16.7751 8.59958 16.7751ZM14.4807 16.7754H17.8178C18.3101 16.7754 18.5577 16.7754 18.7051 16.6781C18.8643 16.5749 18.9645 16.401 18.9734 16.2123C18.9819 16.0442 18.8637 15.8401 18.6319 15.4403C18.624 15.4266 18.616 15.4128 18.6078 15.3987L16.9364 12.5392L16.9173 12.5071C16.6825 12.1098 16.5638 11.9093 16.4116 11.8317C16.2436 11.7462 16.0461 11.7462 15.8781 11.8317C15.7248 11.9113 15.6009 12.1206 15.3563 12.5422L13.6907 15.4016L13.685 15.4115C13.4412 15.8324 13.3193 16.0427 13.3281 16.2153C13.3399 16.404 13.4371 16.5779 13.5964 16.6811C13.7408 16.7754 13.9884 16.7754 14.4807 16.7754Z" fill="#E84142"/>
</svg>
