<svg width="16" height="17" viewBox="0 0 16 17" fill="none" xmlns="http://www.w3.org/2000/svg">
<path d="M5.39431 4.24406L3.93837 3.43739L7.99967 1.16406L12.061 3.43739L10.605 4.24406L7.99967 2.85073L5.39431 4.24406ZM13.1338 5.63739V7.32406L14.5897 6.51739V4.83073L13.1338 4.02406L11.6778 4.83073L13.1338 5.63739ZM6.54374 4.83073L7.99967 5.63739L9.45561 4.83073L7.99967 4.02406L6.54374 4.83073ZM12.061 6.22406L10.605 5.41739L7.99967 6.81073L5.39431 5.41739L3.93837 6.22406V7.91072L6.54374 9.30406V12.1641L7.99967 12.9707L9.45561 12.1641V9.30406L12.061 7.91072V6.22406ZM13.1338 11.3574L10.605 12.7507V14.4374L14.6663 12.1641V7.69072L13.1338 8.49739V11.3574ZM10.605 11.5774L12.061 10.7707V9.08406L10.605 9.89072V11.5774ZM6.54374 13.3374V15.0241L7.99967 15.8307L9.45561 15.0241V13.3374L7.99967 14.1441L6.54374 13.3374ZM1.33301 6.51739L2.78895 7.32406V5.63739L4.32151 4.83073L2.86557 4.02406L1.33301 4.83073V6.51739ZM2.86557 8.49739L1.40964 7.69072V12.1641L5.47094 14.4374V12.7507L2.86557 11.3574V8.49739ZM5.39431 9.89072L3.93837 9.08406V10.7707L5.39431 11.5774V9.89072Z" fill="#FFDB75"/>
</svg>
