<svg width="16" height="16" viewBox="0 0 16 16" fill="none" xmlns="http://www.w3.org/2000/svg">
<g clip-path="url(#clip0_9367_2280)">
<path d="M12.1211 9.48112H9.68541C9.24084 9.48112 8.87891 9.11918 8.87891 8.67462C8.87891 7.81829 9.15273 6.9461 9.67053 6.22566C10.0233 5.73501 10.1355 5.13244 9.98639 4.52911C9.78055 3.69102 8.98915 2.99026 8.00008 3.0001C6.89008 3.01117 5.94945 3.91876 5.94922 5.04753C5.94922 5.45173 6.06877 5.84228 6.29544 6.17645C6.84331 6.9873 7.12109 7.85461 7.12109 8.67744C7.12109 9.12063 6.7606 9.48112 6.31741 9.48112H3.87891C3.39429 9.48112 3 9.87533 3 10.36V11.8249H13V10.36C13 9.87533 12.6057 9.48112 12.1211 9.48112Z" fill="white"/>
<path d="M3.58594 12.4109H12.4141V12.9968H3.58594V12.4109Z" fill="white"/>
</g>
<defs>
<clipPath id="clip0_9367_2280">
<rect width="10" height="10" fill="white" transform="translate(3 3)"/>
</clipPath>
</defs>
</svg>
