<svg width="24" height="24" viewBox="0 0 24 24" fill="none" xmlns="http://www.w3.org/2000/svg">
<path d="M16.0636 8.31482C16.0636 8.21169 15.9793 8.12732 15.8761 8.12732L14.3293 8.13435L11.9996 10.9117L9.67226 8.13669L8.12305 8.12966C8.01992 8.12966 7.93555 8.21169 7.93555 8.31716C7.93555 8.36169 7.95195 8.40388 7.98008 8.43904L11.0293 12.0719L7.98008 15.7023C7.95176 15.7367 7.93604 15.7797 7.93555 15.8242C7.93555 15.9273 8.01992 16.0117 8.12305 16.0117L9.67226 16.0047L11.9996 13.2273L14.3269 16.0023L15.8738 16.0094C15.9769 16.0094 16.0613 15.9273 16.0613 15.8219C16.0613 15.7773 16.0449 15.7351 16.0168 15.7L12.9722 12.0695L16.0215 8.43669C16.0496 8.40388 16.0636 8.35935 16.0636 8.31482Z" fill="white"/>
<path d="M12 1.52344C6.20156 1.52344 1.5 6.225 1.5 12.0234C1.5 17.8219 6.20156 22.5234 12 22.5234C17.7984 22.5234 22.5 17.8219 22.5 12.0234C22.5 6.225 17.7984 1.52344 12 1.52344ZM12 20.7422C7.18594 20.7422 3.28125 16.8375 3.28125 12.0234C3.28125 7.20938 7.18594 3.30469 12 3.30469C16.8141 3.30469 20.7188 7.20938 20.7188 12.0234C20.7188 16.8375 16.8141 20.7422 12 20.7422Z" fill="white"/>
</svg>
