<svg width="24" height="24" viewBox="0 0 24 24" fill="none" xmlns="http://www.w3.org/2000/svg">
<path d="M17.1792 5H8.04279C7.96779 5 7.90643 5.06027 7.90643 5.13393V6.07143C7.90643 6.14509 7.96779 6.20536 8.04279 6.20536H16.4973V17.7232C16.4973 17.7969 16.5587 17.8571 16.6337 17.8571H17.5882C17.6632 17.8571 17.7246 17.7969 17.7246 17.7232V5.53571C17.7246 5.2394 17.4809 5 17.1792 5ZM14.9973 7.14286H6.27006C5.96836 7.14286 5.72461 7.38225 5.72461 7.67857V16.5631C5.72461 16.7054 5.78256 16.841 5.88484 16.9414L8.83881 19.8426C8.87631 19.8795 8.91893 19.9096 8.96495 19.9347V19.9665H9.03654C9.0962 19.9883 9.15927 20 9.22404 20H14.9973C15.299 20 15.5428 19.7606 15.5428 19.4643V7.67857C15.5428 7.38225 15.299 7.14286 14.9973 7.14286ZM8.96325 18.2623L7.49563 16.8192H8.96325V18.2623ZM14.3155 18.7946H10.0542V16.4174C10.0542 16.0474 9.74904 15.7478 9.37234 15.7478H6.95188V8.34821H14.3155V18.7946Z" fill="#FFFFFF"/>
</svg>
