<svg width="28" height="28" viewBox="0 0 28 28" fill="none" xmlns="http://www.w3.org/2000/svg">
<g clip-path="url(#clip0_8239_9429)">
<path d="M12.9511 18.9208V15.0927H9.23085C8.64374 15.0927 8.16791 14.6031 8.16791 13.9989C8.16791 13.395 8.64374 12.9052 9.23085 12.9052H12.9511V9.07706C12.9511 8.47314 13.427 7.98331 14.0141 7.98331C14.6012 7.98331 15.077 8.47314 15.077 9.07706V12.9052H18.7973C19.3844 12.9052 19.8603 13.395 19.8603 13.9989C19.8603 14.6031 19.3844 15.0927 18.7973 15.0927H15.077V18.9208C15.077 19.5249 14.6012 20.0146 14.0141 20.0146C13.427 20.0146 12.9511 19.5249 12.9511 18.9208ZM23.6347 4.10049C21.065 1.45627 17.6482 0 14.0141 0C10.3799 0 6.96318 1.45627 4.39343 4.10049C1.82369 6.74472 0.408447 10.2605 0.408447 14C0.408447 17.7395 1.82369 21.2553 4.39343 23.8995C6.96318 26.5437 10.3799 28 14.0141 28C16.502 28 18.9364 27.3023 21.054 25.9823C21.5562 25.6694 21.7167 24.9969 21.4125 24.4803C21.1084 23.9636 20.4546 23.7985 19.9526 24.1114C18.1672 25.2242 16.1136 25.8125 14.0141 25.8125C7.68419 25.8125 2.53433 20.5134 2.53433 14C2.53433 7.48663 7.68419 2.1875 14.0141 2.1875C20.344 2.1875 25.4938 7.48663 25.4938 14C25.4938 16.3291 24.8208 18.5961 23.5473 20.5563C23.221 21.0583 23.3522 21.7376 23.8403 22.0735C24.3281 22.4091 24.9883 22.274 25.3147 21.772C26.8225 19.451 27.6197 16.7634 27.6197 14C27.6197 10.2605 26.2045 6.74472 23.6347 4.10049Z" fill="url(#paint0_linear_8239_9429)"/>
</g>
<defs>
<linearGradient id="paint0_linear_8239_9429" x1="0.408447" y1="14" x2="27.6197" y2="14" gradientUnits="userSpaceOnUse">
<stop stop-color="#00F2FE"/>
<stop offset="0.0208" stop-color="#03EFFE"/>
<stop offset="0.2931" stop-color="#24D2FE"/>
<stop offset="0.5538" stop-color="#3CBDFE"/>
<stop offset="0.7956" stop-color="#4AB0FE"/>
<stop offset="1" stop-color="#4FACFE"/>
</linearGradient>
<clipPath id="clip0_8239_9429">
<rect width="27.2113" height="28" fill="white" transform="translate(0.408447)"/>
</clipPath>
</defs>
</svg>
