<svg width="20" height="20" viewBox="0 0 20 20" fill="none" xmlns="http://www.w3.org/2000/svg">
<path d="M10.4144 9.61523L5.42811 3.24414C5.36952 3.16797 5.27772 3.125 5.18202 3.125H3.67225C3.54139 3.125 3.46913 3.27539 3.54921 3.37695L8.7328 10L3.54921 16.623C3.53117 16.6461 3.51998 16.6737 3.51692 16.7028C3.51385 16.7319 3.51903 16.7613 3.53187 16.7875C3.5447 16.8138 3.56467 16.836 3.5895 16.8514C3.61433 16.8669 3.643 16.8751 3.67225 16.875H5.18202C5.27772 16.875 5.36952 16.8301 5.42811 16.7559L10.4144 10.3867C10.5922 10.1582 10.5922 9.8418 10.4144 9.61523ZM16.3519 9.61523L11.3656 3.24414C11.307 3.16797 11.2152 3.125 11.1195 3.125H9.60975C9.47889 3.125 9.40663 3.27539 9.4867 3.37695L14.6703 10L9.4867 16.623C9.46867 16.6461 9.45748 16.6737 9.45442 16.7028C9.45135 16.7319 9.45653 16.7613 9.46937 16.7875C9.4822 16.8138 9.50217 16.836 9.527 16.8514C9.55183 16.8669 9.5805 16.8751 9.60975 16.875H11.1195C11.2152 16.875 11.307 16.8301 11.3656 16.7559L16.3519 10.3867C16.5297 10.1582 16.5297 9.8418 16.3519 9.61523Z" fill="#0047FF"/>
</svg>
