<svg width="16" height="16" viewBox="0 0 16 16" fill="none" xmlns="http://www.w3.org/2000/svg">
<path d="M12 7.5C11.7 7.5 11.5 7.7 11.5 8V11C11.5 11.3 11.3 11.5 11 11.5H5C4.7 11.5 4.5 11.3 4.5 11V5C4.5 4.7 4.7 4.5 5 4.5H8C8.3 4.5 8.5 4.3 8.5 4C8.5 3.7 8.3 3.5 8 3.5H5C4.15 3.5 3.5 4.15 3.5 5V11C3.5 11.85 4.15 12.5 5 12.5H11C11.85 12.5 12.5 11.85 12.5 11V8C12.5 7.7 12.3 7.5 12 7.5Z" fill="#FFFFFF"/>
<path d="M10 4.5H10.8L7.65 7.65C7.45 7.85 7.45 8.15 7.65 8.35C7.85 8.55 8.15 8.55 8.35 8.35L11.5 5.2V6C11.5 6.3 11.7 6.5 12 6.5C12.3 6.5 12.5 6.3 12.5 6V4C12.5 3.7 12.3 3.5 12 3.5H10C9.7 3.5 9.5 3.7 9.5 4C9.5 4.3 9.7 4.5 10 4.5Z" fill="#FFFFFF"/>
</svg>
