<svg width="48" height="48" viewBox="0 0 48 48" fill="none" xmlns="http://www.w3.org/2000/svg">
<path fill-rule="evenodd" clip-rule="evenodd" d="M25.3958 28.2461C25.8713 28.2461 26.2628 28.6126 26.2908 29.1201L26.5984 45.7542C26.5984 46.1771 26.3188 46.5436 25.8993 46.6282L19.243 47.9815C19.0752 48.0097 18.9354 48.0097 18.7676 47.9533C18.3201 47.7841 18.0684 47.2766 18.2362 46.8256L24.5848 28.8382C24.7246 28.4716 25.0323 28.2461 25.3958 28.2461ZM28.668 29.2047C29.0316 28.8664 29.563 28.8946 29.8986 29.2611L40.2465 40.623C40.3584 40.7358 40.4423 40.9049 40.4702 41.0459C40.5541 41.5252 40.2465 41.9763 39.771 42.0609L29.6469 43.9216C29.5909 43.9216 29.563 43.9216 29.507 43.9498C29.0316 43.9498 28.6401 43.5833 28.6121 43.0758L28.3604 29.8531C28.3883 29.6276 28.4722 29.3738 28.668 29.2047ZM23.0466 27.2875C23.1025 27.4567 23.0746 27.6259 23.0186 27.795L18.0404 41.9481C17.8726 42.3992 17.3692 42.6529 16.9217 42.4838C16.8099 42.4274 16.698 42.371 16.6141 42.2864L6.29416 32.165C5.95855 31.8267 5.93058 31.2628 6.26619 30.9245C6.37806 30.8117 6.5179 30.7271 6.65774 30.6989L21.9559 26.6673C22.4593 26.5545 22.9347 26.8364 23.0466 27.2875ZM31.6046 25.1448L47.2943 28.4153C47.7417 28.4998 48.0494 28.9227 47.9934 29.402L46.3154 41.6662C46.2595 42.1454 45.812 42.4838 45.3365 42.4274C45.1408 42.3992 44.945 42.3146 44.8052 42.1454L30.7935 26.6391C30.4579 26.2726 30.4859 25.7369 30.8495 25.3986C31.0452 25.173 31.3529 25.0884 31.6046 25.1448ZM1.20411 14.7697C1.37191 14.3186 1.87532 14.093 2.3228 14.2622L23.7458 22.5228C23.9975 22.6356 24.2212 22.8612 24.2771 23.1149C24.389 23.5942 24.1093 24.0735 23.6619 24.1863L1.09224 30.1069C1.00834 30.1351 0.896466 30.1351 0.812564 30.1351C0.33712 30.1069 -0.0264561 29.684 0.00151124 29.1765L1.14817 14.9952C1.14817 14.9106 1.17614 14.826 1.20411 14.7697ZM42.0084 7.52396C42.1762 7.66493 42.2881 7.83409 42.3161 8.03144L45.5603 24.3554C45.6442 24.8347 45.3365 25.2858 44.8891 25.3986C44.7772 25.4268 44.6653 25.4268 44.5535 25.3986L30.6257 22.5228C30.1503 22.4383 29.8426 21.959 29.9545 21.4797C29.9825 21.3387 30.0384 21.226 30.1223 21.1132L40.8058 7.66493C41.0855 7.27022 41.6169 7.21384 42.0084 7.52396ZM26.3467 4.76101C26.4306 4.90198 26.4586 5.04294 26.4586 5.21211V20.07C26.4586 20.5493 26.0671 20.944 25.5916 20.944C25.4797 20.944 25.3679 20.9158 25.284 20.8876L9.98585 14.9952C9.53837 14.8261 9.31463 14.3186 9.48243 13.8675C9.56633 13.6701 9.67821 13.5292 9.84601 13.4164L25.1441 4.45088C25.5636 4.19714 26.123 4.33811 26.3467 4.76101ZM28.3883 0.588391C28.5561 0.137297 29.0596 -0.116446 29.507 0.0527142L39.7431 3.71785C39.827 3.74605 39.9109 3.80244 39.9948 3.85882C40.3584 4.16895 40.4423 4.70463 40.1346 5.09933L29.8986 17.9555C29.7308 18.1529 29.4791 18.2938 29.2274 18.2938C28.7519 18.2938 28.3604 17.8991 28.3604 17.4198V0.898516C28.3324 0.785742 28.3604 0.701165 28.3883 0.588391Z" fill="#1DE9B6"/>
</svg>
