<svg width="40" height="55" viewBox="0 0 40 55" fill="none" xmlns="http://www.w3.org/2000/svg">
<path fill-rule="evenodd" clip-rule="evenodd" d="M21.1632 23.2221C21.5594 23.2221 21.8857 23.5234 21.909 23.9407L22.1654 37.6161C22.1654 37.9638 21.9323 38.2652 21.5827 38.3347L16.0359 39.4473C15.896 39.4705 15.7795 39.4705 15.6397 39.4241C15.2668 39.285 15.057 38.8678 15.1968 38.4969L20.4873 23.7089C20.6039 23.4076 20.8602 23.2221 21.1632 23.2221ZM23.89 24.0102C24.193 23.7321 24.6358 23.7552 24.9155 24.0566L33.5387 33.3976C33.632 33.4903 33.7019 33.6294 33.7252 33.7453C33.7951 34.1393 33.5387 34.5102 33.1425 34.5797L24.7057 36.1095C24.6591 36.1095 24.6358 36.1095 24.5892 36.1327C24.193 36.1327 23.8667 35.8314 23.8434 35.4142L23.6336 24.5433C23.657 24.3579 23.7269 24.1493 23.89 24.0102ZM19.2055 22.434C19.2521 22.5731 19.2288 22.7122 19.1822 22.8513L15.0337 34.487C14.8939 34.8579 14.4743 35.0665 14.1015 34.9274C14.0082 34.8811 13.915 34.8347 13.8451 34.7652L5.24513 26.444C4.96546 26.1658 4.94215 25.7023 5.22183 25.4241C5.31505 25.3314 5.43158 25.2619 5.54811 25.2387L18.2966 21.9241C18.7161 21.8314 19.1123 22.0632 19.2055 22.434ZM26.3372 20.6725L39.4119 23.3612C39.7848 23.4307 40.0411 23.7784 39.9945 24.1725L38.5962 34.2552C38.5496 34.6493 38.1767 34.9274 37.7805 34.8811C37.6173 34.8579 37.4542 34.7883 37.3376 34.6493L25.6613 21.9009C25.3816 21.5996 25.4049 21.1592 25.7079 20.8811C25.871 20.6956 26.1274 20.6261 26.3372 20.6725ZM1.00342 12.1427C1.14326 11.7718 1.56277 11.5864 1.93567 11.7254L19.7881 18.5168C19.9979 18.6095 20.1843 18.795 20.231 19.0036C20.3242 19.3976 20.0911 19.7917 19.7182 19.8844L0.910198 24.7519C0.840279 24.7751 0.747055 24.7751 0.677137 24.7751C0.280933 24.7519 -0.0220467 24.4042 0.00125937 23.987L0.956809 12.3281C0.956809 12.2586 0.980116 12.189 1.00342 12.1427ZM35.007 6.18572C35.1469 6.30161 35.2401 6.44068 35.2634 6.60294L37.9669 20.0235C38.0368 20.4175 37.7805 20.7884 37.4076 20.8811C37.3143 20.9042 37.2211 20.9042 37.1279 20.8811L25.5214 18.5168C25.1252 18.4473 24.8689 18.0533 24.9621 17.6592C24.9854 17.5433 25.032 17.4506 25.1019 17.3579L34.0049 6.30161C34.2379 5.97711 34.6807 5.93075 35.007 6.18572ZM21.9556 3.91419C22.0255 4.03009 22.0488 4.14598 22.0488 4.28506V16.5003C22.0488 16.8943 21.7225 17.2188 21.3263 17.2188C21.2331 17.2188 21.1399 17.1956 21.07 17.1725L8.32154 12.3281C7.94864 12.189 7.76219 11.7718 7.90203 11.4009C7.97195 11.2387 8.06517 11.1228 8.20501 11.0301L20.9534 3.65923C21.303 3.45062 21.7692 3.56651 21.9556 3.91419ZM23.657 0.483737C23.7968 0.112877 24.2163 -0.0957345 24.5892 0.0433382L33.1192 3.05658C33.1892 3.07976 33.2591 3.12612 33.329 3.17247C33.632 3.42744 33.7019 3.86784 33.4455 4.19234L24.9155 14.7619C24.7756 14.9241 24.5659 15.04 24.3561 15.04C23.9599 15.04 23.6336 14.7155 23.6336 14.3215V0.738702C23.6103 0.645987 23.6336 0.576452 23.657 0.483737Z" fill="#1DE9B6"/>
<path d="M11.0064 44.6291V45.9305H11.0361C11.3733 44.9768 11.998 44.6291 12.8805 44.6291H15.7758C15.8552 44.6291 15.9246 44.6788 15.9444 44.7583L17.2037 48.9205C17.283 49.1887 17.3524 49.4967 17.3921 49.8642H17.4218C17.4615 49.596 17.5408 49.2881 17.6499 48.9305L18.9588 44.6291H21.0906L18.2647 52.2483C17.5805 54.0762 16.5592 55 15.1908 55C14.6653 55 14.2389 54.9404 13.9018 54.8212V53.0828C14.1893 53.2517 14.4967 53.3411 14.8338 53.3411C15.3891 53.3411 15.7758 53.0729 15.994 52.5464L16.3609 51.6722L14.229 46.3775H12.4937C12.0575 46.3775 11.7104 46.5265 11.4526 46.8245L11.3931 46.894C11.1254 47.2417 10.9965 47.7086 10.9965 48.3046V51.6523H8.84478V44.6291C8.85469 44.6291 11.0064 44.6291 11.0064 44.6291ZM28.5175 42.5132V44.6291H30.104V46.1887H28.5175V49.0993C28.5175 49.8344 28.805 50.202 29.3901 50.202C29.6181 50.202 29.8561 50.1325 30.0941 50.0033V51.6126C29.7768 51.7815 29.2909 51.8709 28.6464 51.8709C27.1095 51.8709 26.346 51.0762 26.346 49.4868V46.1987H25.5527H23.7282C23.5894 46.1987 23.4506 46.2086 23.3217 46.2384C23.1928 46.2682 23.0837 46.298 22.9845 46.3477C22.8854 46.3974 22.816 46.457 22.7565 46.5364C22.697 46.6159 22.6672 46.6854 22.6672 46.7848C22.6672 46.9139 22.7069 46.9735 22.7961 47.0629C22.8755 47.1523 22.9845 47.2318 23.1234 47.3013C23.2523 47.3709 23.4109 47.4305 23.5696 47.4801C23.7381 47.5298 23.8968 47.5894 24.0554 47.6391C24.343 47.7384 24.6107 47.8477 24.8487 47.9768C25.0867 48.096 25.285 48.2351 25.4535 48.404C25.6221 48.5629 25.751 48.7517 25.8403 48.9702C25.9295 49.1887 25.9791 49.447 25.9791 49.745C25.9791 50.1623 25.8898 50.5298 25.7014 50.8278C25.523 51.1258 25.2751 51.3742 24.9776 51.553C24.6702 51.7417 24.3232 51.8808 23.9265 51.9603C23.5299 52.0497 23.1234 52.0894 22.697 52.0894C21.9136 52.0894 21.1898 51.9702 20.5254 51.7318V49.9536C20.8824 50.1722 21.2493 50.3311 21.6063 50.4404C21.9632 50.5497 22.3004 50.5993 22.6177 50.5993C23.0044 50.5993 23.3118 50.5497 23.5398 50.4404C23.7679 50.3311 23.8769 50.1722 23.8769 49.9536C23.8769 49.8146 23.8274 49.6954 23.7282 49.606C23.6291 49.5166 23.5002 49.4371 23.3415 49.3676C23.1829 49.298 23.0044 49.2384 22.816 49.1788C22.6276 49.1192 22.4392 49.0596 22.2706 48.9901C21.993 48.8808 21.7451 48.7715 21.5269 48.6424C21.3088 48.5232 21.1303 48.3742 20.9816 48.2152C20.8328 48.0563 20.7238 47.8675 20.6444 47.649C20.5651 47.4404 20.5254 47.1821 20.5254 46.894C20.5254 46.4967 20.6147 46.149 20.7833 45.8609C20.9518 45.5728 21.1898 45.3344 21.4774 45.1556C21.7649 44.9768 22.0921 44.8377 22.4689 44.7483C22.8457 44.6589 23.2324 44.6192 23.6291 44.6192H26.346V43.1192L28.5175 42.5132ZM39.1074 41.0629V49.7252C39.1074 49.8841 39.1868 50.0132 39.3256 50.0132C39.5536 50.0132 39.6627 50.0132 39.9403 49.9735H39.9998V51.7616C39.7123 51.8411 39.4446 51.8709 39.0777 51.8709C37.6597 51.8709 36.9954 51.2152 36.9954 49.9636V41.0629H39.1074ZM33.6637 44.4106C35.6171 44.4106 36.6087 45.3642 36.6583 47.2715V47.4007V51.5927H34.6156V50.5894H34.5859L34.5165 50.6987C34.0504 51.4139 33.3762 51.7715 32.4937 51.7715C31.8194 51.7715 31.284 51.5828 30.8873 51.1954C30.5006 50.8079 30.3023 50.2914 30.3023 49.6556C30.3023 48.3344 31.0559 47.5596 32.573 47.3212L32.7118 47.3013L34.6156 47.043V46.9536C34.5859 46.2483 34.1694 45.8907 33.3762 45.8907C32.6027 45.8907 31.8591 46.1093 31.1451 46.5364L30.9964 46.6358V45.0066L31.1055 44.957C31.393 44.8278 31.7698 44.6987 32.2359 44.5993C32.7614 44.4603 33.2374 44.4106 33.6637 44.4106ZM3.67871 38.5V47.8775H3.70846L5.65193 44.8576L6.40552 43.8344H8.96377L8.18043 44.8675L5.84033 47.9371L8.52747 51.6523H5.93948L3.70846 48.1755H3.67871V51.6523H1.51709V39.0563L3.67871 38.5ZM34.6255 48.2649L33.3563 48.4338L33.2572 48.4437C32.6226 48.553 32.3053 48.8609 32.3053 49.3775C32.3053 49.6258 32.3945 49.8245 32.5631 49.9834C32.7317 50.1424 32.9696 50.2219 33.2572 50.2219C33.6637 50.2219 33.9909 50.0828 34.2488 49.8046C34.4768 49.5464 34.6057 49.2285 34.6255 48.851V48.7318V48.2649Z" fill="#F2F2F2"/>
</svg>
