<svg width="16" height="16" viewBox="0 0 16 16" fill="none" xmlns="http://www.w3.org/2000/svg">
<path d="M10.875 7.5H8.5V5.125C8.5 5.05625 8.44375 5 8.375 5H7.625C7.55625 5 7.5 5.05625 7.5 5.125V7.5H5.125C5.05625 7.5 5 7.55625 5 7.625V8.375C5 8.44375 5.05625 8.5 5.125 8.5H7.5V10.875C7.5 10.9437 7.55625 11 7.625 11H8.375C8.44375 11 8.5 10.9437 8.5 10.875V8.5H10.875C10.9437 8.5 11 8.44375 11 8.375V7.625C11 7.55625 10.9437 7.5 10.875 7.5Z" fill="white"/>
<path d="M8.00016 1.33331C4.31862 1.33331 1.3335 4.31843 1.3335 7.99998C1.3335 11.6815 4.31862 14.6666 8.00016 14.6666C11.6817 14.6666 14.6668 11.6815 14.6668 7.99998C14.6668 4.31843 11.6817 1.33331 8.00016 1.33331ZM8.00016 13.5357C4.94362 13.5357 2.46445 11.0565 2.46445 7.99998C2.46445 4.94343 4.94362 2.46427 8.00016 2.46427C11.0567 2.46427 13.5359 4.94343 13.5359 7.99998C13.5359 11.0565 11.0567 13.5357 8.00016 13.5357Z" fill="white"/>
</svg>
