<svg width="32" height="30" viewBox="0 0 32 30" fill="none" xmlns="http://www.w3.org/2000/svg">
<path d="M19.4643 23.9234L16.2101 29.5398C15.8455 30.1691 14.9107 30.1489 14.575 29.5043L8.45256 17.7488C8.24397 17.3483 8.69447 16.927 9.09475 17.1483L19.1136 22.687C19.5599 22.9337 19.7169 23.4874 19.4643 23.9234Z" fill="white"/>
<path d="M25.5423 0.854149L6.30659 10.8328C5.61689 11.1906 4.76097 10.9243 4.40993 10.2427L0.150446 1.97233C-0.315603 1.06743 0.357531 4.32537e-07 1.39422 4.32537e-07L25.3246 1.60111e-06C25.8083 1.62269e-06 25.9695 0.632538 25.5423 0.854149Z" fill="white"/>
<path d="M31.8291 1.93471L21.0676 20.7639C20.8164 21.2035 20.2469 21.359 19.7989 21.1105L7.24082 14.1439C6.61533 13.7969 6.61388 12.9166 7.23823 12.5676L28.9051 0.457651C29.4416 0.157756 30.049 0 30.6672 0C31.6833 0 32.3246 1.0678 31.8291 1.93471Z" fill="#0047FF"/>
</svg>
