<svg width="20" height="20" viewBox="0 0 20 20" fill="none" xmlns="http://www.w3.org/2000/svg">
<g clip-path="url(#clip0_8164_64608)">
<path fill-rule="evenodd" clip-rule="evenodd" d="M9.99998 2.87061C9.77379 2.87061 9.54763 2.87432 9.37521 2.88174C5.95921 3.02875 2.70359 4.37721 0.184157 6.68874C-0.0701695 6.92208 -0.0693045 7.31891 0.174773 7.56299L1.34444 8.73265C1.58851 8.97673 1.98316 8.97529 2.23997 8.74471C4.21137 6.97467 6.7297 5.93155 9.37529 5.78915C9.71993 5.7706 10.28 5.7706 10.6247 5.78915C13.2703 5.93155 15.7887 6.97467 17.7601 8.74471C18.0169 8.97529 18.4115 8.97673 18.6556 8.73265L19.8252 7.56299C20.0693 7.31891 20.0702 6.92208 19.8159 6.68874C17.2965 4.37721 14.0408 3.02875 10.6248 2.88174C10.4524 2.87432 10.2262 2.87061 9.99998 2.87061ZM9.96496 8.67627L9.34065 8.70122C7.47797 8.84255 5.70921 9.57931 4.29709 10.8022C4.03621 11.0281 4.0376 11.4258 4.28168 11.6699L5.45126 12.8396C5.69534 13.0836 6.08928 13.0805 6.35802 12.8641C7.22126 12.1691 8.266 11.7354 9.36766 11.6147L9.99998 11.5802C11.7285 11.7332 12.7764 12.1673 13.642 12.8641C13.9107 13.0805 14.3046 13.0836 14.5487 12.8396L15.7184 11.6699C15.9624 11.4258 15.9638 11.0281 15.7029 10.8022C14.2817 9.5715 12.4996 8.83338 10.6244 8.6987C10.2802 8.67398 9.9843 8.67623 9.96496 8.67627ZM9.99998 14.4961C9.77403 14.4961 9.54807 14.5145 9.37979 14.5513C9.04329 14.6249 8.72248 14.7577 8.43252 14.9437C8.14251 15.1296 8.1445 15.5327 8.38858 15.7768L9.55809 16.9463C9.6753 17.0635 9.83426 17.1294 10 17.1294C10.1658 17.1294 10.3247 17.0635 10.442 16.9463L11.6115 15.7768C11.8555 15.5327 11.8575 15.1296 11.5675 14.9437C11.2776 14.7577 10.9567 14.6249 10.6202 14.5513C10.4519 14.5145 10.2259 14.4961 9.99998 14.4961Z" fill="#08AC85"/>
<path fill-rule="evenodd" clip-rule="evenodd" d="M10.0076 2.87073V5.77539C10.2312 5.77551 10.4544 5.78003 10.6248 5.7892C13.2704 5.93159 15.7888 6.97472 17.7602 8.74475C18.017 8.97533 18.4116 8.97677 18.6557 8.7327L19.8253 7.56303C20.0694 7.31896 20.0703 6.92212 19.816 6.68878C17.2966 4.37726 14.0409 3.02879 10.6249 2.88179C10.4545 2.87445 10.2312 2.87081 10.0076 2.87073ZM0.00756202 6.99449C-0.0117447 7.08071 -0.0115357 7.17047 0.00756202 7.25732V6.99449ZM10.0076 8.67632V11.581C11.7316 11.7345 12.7778 12.1683 13.6421 12.8642C13.9108 13.0805 14.3047 13.0837 14.5488 12.8396L15.7185 11.6699C15.9625 11.4259 15.9639 11.0282 15.703 10.8022C14.2818 9.57155 12.4997 8.83343 10.6246 8.69875C10.3386 8.67821 10.096 8.67635 10.0076 8.67632ZM10.0076 14.4963V17.1294C10.1707 17.1274 10.3267 17.0617 10.4421 16.9464L11.6116 15.7768C11.8556 15.5328 11.8576 15.1297 11.5676 14.9437C11.2777 14.7578 10.9568 14.6249 10.6203 14.5513C10.4539 14.5149 10.231 14.4967 10.0076 14.4963Z" fill="#059270"/>
</g>
<defs>
<clipPath id="clip0_8164_64608">
<rect width="20" height="20" fill="white"/>
</clipPath>
</defs>
</svg>
