<svg width="186" height="260" viewBox="0 0 186 260" fill="none" xmlns="http://www.w3.org/2000/svg">
<g clip-path="url(#clip0_8148_55884)">
<g opacity="0.11">
<path d="M94.7342 160.816C96.7008 159.679 98.9315 159.08 101.202 159.08C103.473 159.08 105.704 159.679 107.67 160.816L184.778 205.3C185.055 205.46 185.285 205.689 185.445 205.966C185.605 206.243 185.689 206.557 185.689 206.877C185.689 207.197 185.605 207.511 185.445 207.788C185.285 208.065 185.055 208.295 184.778 208.454L107.028 253.414C105.292 254.417 103.322 254.946 101.317 254.946C99.3128 254.946 97.3433 254.417 95.6069 253.414L17.7386 208.496C17.4634 208.335 17.235 208.105 17.0762 207.828C16.9175 207.552 16.834 207.238 16.834 206.919C16.834 206.6 16.9175 206.287 17.0762 206.01C17.235 205.733 17.4634 205.503 17.7386 205.342L94.7342 160.816Z" fill="#ACE06A"/>
</g>
<g opacity="0.11">
<path d="M94.7348 139.81C96.7014 138.673 98.9321 138.074 101.203 138.074C103.474 138.074 105.704 138.673 107.671 139.81L184.778 184.295C185.055 184.455 185.285 184.685 185.445 184.963C185.605 185.24 185.689 185.555 185.689 185.875C185.689 186.195 185.605 186.51 185.445 186.787C185.285 187.065 185.055 187.295 184.778 187.455L107.029 232.436C105.292 233.44 103.323 233.968 101.318 233.968C99.3134 233.968 97.3439 233.44 95.6075 232.436L17.7392 187.49C17.4641 187.329 17.2359 187.098 17.0774 186.821C16.9189 186.543 16.8354 186.229 16.8354 185.91C16.8354 185.591 16.9189 185.277 17.0774 184.999C17.2359 184.722 17.4641 184.491 17.7392 184.33L94.7348 139.81Z" fill="url(#paint0_linear_8148_55884)"/>
</g>
<g opacity="0.11">
<path d="M94.7348 139.81C96.7014 138.673 98.9321 138.074 101.203 138.074C103.474 138.074 105.704 138.673 107.671 139.81L184.778 184.295C185.055 184.455 185.285 184.685 185.445 184.963C185.605 185.24 185.689 185.555 185.689 185.875C185.689 186.195 185.605 186.51 185.445 186.787C185.285 187.065 185.055 187.295 184.778 187.455L107.029 232.436C105.292 233.44 103.323 233.968 101.318 233.968C99.3134 233.968 97.3439 233.44 95.6075 232.436L17.7392 187.49C17.4641 187.329 17.2359 187.098 17.0774 186.821C16.9189 186.543 16.8354 186.229 16.8354 185.91C16.8354 185.591 16.9189 185.277 17.0774 184.999C17.2359 184.722 17.4641 184.491 17.7392 184.33L94.7348 139.81Z" fill="#86E069"/>
</g>
<path d="M17.7391 185.693L95.6074 230.612C97.3438 231.615 99.3133 232.143 101.318 232.143C103.323 232.143 105.292 231.615 107.029 230.612L184.778 185.651C185.071 185.487 185.313 185.245 185.476 184.952C185.71 185.375 185.768 185.872 185.637 186.337C185.506 186.802 185.198 187.196 184.778 187.434L107.029 232.437C105.292 233.44 103.323 233.968 101.318 233.968C99.3133 233.968 97.3438 233.44 95.6074 232.437L17.7391 187.49C17.3182 187.254 17.0082 186.859 16.8773 186.394C16.7464 185.928 16.8053 185.43 17.041 185.008C17.2038 185.298 17.446 185.536 17.7391 185.693Z" fill="url(#paint1_linear_8148_55884)"/>
<g opacity="0.5">
<path d="M180.486 113.576C182.357 114.058 184.2 114.562 186.001 115.093V128.448C184.2 127.917 182.357 127.414 180.486 126.924V113.576Z" fill="#42E8E0"/>
<path opacity="0.5" d="M167.71 114.128C169.707 114.513 171.682 114.925 173.623 115.352V125.281C171.682 124.847 169.707 124.442 167.71 124.057V114.128Z" fill="#42E8E0"/>
<path d="M154.125 103.255C156.237 103.535 158.332 103.836 160.408 104.157V122.785C158.341 122.454 156.247 122.153 154.125 121.883V103.255Z" fill="#42E8E0"/>
<path opacity="0.5" d="M139.841 91.5222C142.054 91.683 144.246 91.8648 146.41 92.0816V121.016C144.246 120.799 142.054 120.617 139.841 120.456V91.5222Z" fill="#42E8E0"/>
<path opacity="0.5" d="M124.943 97.7314C127.27 97.7687 129.553 97.8317 131.792 97.9202V119.988C129.53 119.897 127.247 119.827 124.943 119.792V97.7314Z" fill="#42E8E0"/>
<path d="M109.913 74.6361C112.154 74.5452 114.422 74.4822 116.698 74.4473V119.792C114.422 119.827 112.154 119.89 109.913 119.981V74.6361Z" fill="#42E8E0"/>
<path d="M95.3708 83.9567C97.535 83.7469 99.7155 83.5628 101.912 83.4043V120.414C99.7132 120.568 97.535 120.757 95.3708 120.967V83.9567Z" fill="#42E8E0"/>
<path d="M81.4434 71.888C83.5051 71.5664 85.5879 71.2704 87.6915 71V121.848C85.5832 122.123 83.5005 122.421 81.4434 122.743V71.888Z" fill="#42E8E0"/>
</g>
<path opacity="0.2" d="M101.255 213.494C128.356 213.494 150.326 200.791 150.326 185.12C150.326 169.449 128.356 156.745 101.255 156.745C74.1541 156.745 52.1843 169.449 52.1843 185.12C52.1843 200.791 74.1541 213.494 101.255 213.494Z" fill="#42E8E0"/>
<path d="M101.255 201.216C116.631 201.216 129.096 194.01 129.096 185.12C129.096 176.23 116.631 169.024 101.255 169.024C85.8791 169.024 73.4143 176.23 73.4143 185.12C73.4143 194.01 85.8791 201.216 101.255 201.216Z" fill="#42E8E0"/>
<path d="M137.205 140.691L133.73 142.1L145.734 171.798L149.209 170.389L137.205 140.691Z" fill="#42E8E0"/>
<path d="M71.3668 138.539C77.7972 138.446 82.9347 133.149 82.8415 126.708C82.7483 120.268 77.4599 115.122 71.0294 115.215C64.5989 115.309 59.4615 120.605 59.5547 127.046C59.6478 133.487 64.9363 138.632 71.3668 138.539Z" fill="url(#paint2_radial_8148_55884)"/>
<path d="M131.323 144.131C131.323 166.765 117.864 185.12 101.262 185.12C84.661 185.12 71.1943 166.765 71.1943 144.131C71.1943 121.497 84.6541 114.708 101.262 114.708C117.871 114.708 131.323 121.49 131.323 144.131Z" fill="url(#paint3_radial_8148_55884)"/>
<g style="mix-blend-mode:lighten">
<path d="M131.323 144.131C131.323 166.765 117.864 185.12 101.262 185.12C84.661 185.12 71.1943 166.765 71.1943 144.131C71.1943 121.497 84.6541 114.708 101.262 114.708C117.871 114.708 131.323 121.49 131.323 144.131Z" fill="url(#paint4_linear_8148_55884)"/>
</g>
<path d="M101.255 138.747C112.587 138.747 121.773 133.435 121.773 126.881C121.773 120.328 112.587 115.016 101.255 115.016C89.9236 115.016 80.7375 120.328 80.7375 126.881C80.7375 133.435 89.9236 138.747 101.255 138.747Z" fill="#393091"/>
<path d="M86.7484 121.651C94.7628 117.015 107.755 117.015 115.769 121.651C119.078 123.567 121.012 125.973 121.592 128.462C122.408 124.924 120.468 121.211 115.769 118.491C107.755 113.855 94.7628 113.855 86.7484 118.491C82.0501 121.211 80.1093 124.924 80.9261 128.462C81.5055 125.973 83.4393 123.567 86.7484 121.651Z" fill="#453C9E"/>
<path d="M77.575 98.6886L81.289 92.2837C83.5219 89.9281 85.1718 87.0805 86.106 83.9699L89.8619 77.4881L84.4585 74.4115C84.2865 74.2929 84.1042 74.1899 83.9139 74.1039C82.378 73.4046 80.3395 73.5724 78.0916 74.866C73.3164 77.6629 69.4419 84.3545 69.4419 89.8784C69.4419 92.6403 70.4053 94.5842 71.9761 95.4722L77.575 98.6886Z" fill="url(#paint5_radial_8148_55884)"/>
<path d="M89.7697 91.5813C93.1492 85.7186 93.1494 79.382 89.7703 77.428C86.3912 75.4739 80.9123 78.6425 77.5328 84.5051C74.1534 90.3678 74.1531 96.7044 77.5323 98.6584C80.9114 100.612 86.3903 97.4439 89.7697 91.5813Z" fill="#BCBEFF"/>
<path d="M102.449 129.273C119.383 129.273 133.11 115.523 133.11 98.5628C133.11 81.6021 119.383 67.8528 102.449 67.8528C85.5152 67.8528 71.7876 81.6021 71.7876 98.5628C71.7876 115.523 85.5152 129.273 102.449 129.273Z" fill="url(#paint6_radial_8148_55884)"/>
<g style="mix-blend-mode:lighten">
<path d="M102.449 129.273C119.383 129.273 133.11 115.523 133.11 98.5628C133.11 81.6021 119.383 67.8528 102.449 67.8528C85.5152 67.8528 71.7876 81.6021 71.7876 98.5628C71.7876 115.523 85.5152 129.273 102.449 129.273Z" fill="url(#paint7_linear_8148_55884)"/>
</g>
<path d="M119.609 119.33L123.323 112.925C125.553 110.571 127.2 107.726 128.133 104.618L131.896 98.1294L126.485 95.0178C126.314 94.903 126.134 94.8002 125.948 94.7102C124.412 93.976 122.367 94.1718 120.126 95.4723C115.35 98.2343 111.476 104.954 111.476 110.485C111.476 113.247 112.439 115.183 114.003 116.078L119.609 119.33Z" fill="url(#paint8_radial_8148_55884)"/>
<path style="mix-blend-mode:lighten" d="M119.609 119.33L123.323 112.925C125.553 110.571 127.2 107.726 128.133 104.618L131.896 98.1294L126.485 95.0178C126.314 94.903 126.134 94.8002 125.948 94.7102C124.412 93.976 122.367 94.1718 120.126 95.4723C115.35 98.2343 111.476 104.954 111.476 110.485C111.476 113.247 112.439 115.183 114.003 116.078L119.609 119.33Z" fill="url(#paint9_linear_8148_55884)"/>
<g style="mix-blend-mode:lighten" opacity="0.5">
<path d="M52.1843 0V185.12C52.1843 192.378 56.9804 199.643 66.5586 205.181C85.722 216.263 116.823 216.263 135.959 205.181C145.488 199.671 150.27 192.455 150.326 185.239V0H52.1843Z" fill="url(#paint10_linear_8148_55884)"/>
</g>
<path d="M132.336 111.261C135.715 105.372 135.703 99.0133 132.308 97.0593C128.914 95.1053 123.422 98.2956 120.043 104.185C116.663 110.075 116.676 116.433 120.07 118.387C123.465 120.341 128.956 117.151 132.336 111.261Z" fill="#BCBEFF"/>
<path d="M117.431 113.764C117.431 108.24 121.305 101.52 126.087 98.7515C127.43 97.8908 129.015 97.4908 130.604 97.6118C128.899 97.3516 127.159 97.7327 125.717 98.6816C120.935 101.479 117.061 108.17 117.061 113.694C117.061 117.309 118.715 119.512 121.201 119.84C118.911 119.337 117.431 117.183 117.431 113.764Z" fill="white"/>
<path d="M131.875 105.115C131.875 109.065 129.082 113.869 125.69 115.848C122.297 117.827 119.504 116.218 119.504 112.268C119.504 108.317 122.297 103.513 125.69 101.542C129.082 99.5697 131.875 101.164 131.875 105.115Z" fill="#393091"/>
<path d="M129.243 100.786C129.961 101.745 130.319 102.925 130.255 104.122C130.255 108.072 127.463 112.876 124.07 114.848C123.026 115.547 121.754 115.818 120.516 115.603C121.619 116.911 123.525 117.099 125.689 115.848C129.103 113.869 131.875 109.065 131.875 105.115C131.875 102.695 130.835 101.157 129.243 100.786Z" fill="#453C9E"/>
<path d="M89.3196 118.876C93.2885 117.221 94.1865 110.299 91.3254 103.414C88.4642 96.5301 82.9274 92.2906 78.9585 93.9453C74.9896 95.6 74.0916 102.522 76.9528 109.407C79.8139 116.291 85.3508 120.53 89.3196 118.876Z" fill="#393091"/>
<path d="M88.8986 107.877C88.6123 110.072 86.9578 110.764 85.2055 109.415C84.2884 108.633 83.5687 107.646 83.1052 106.533C82.6418 105.42 82.4477 104.212 82.5387 103.01C82.8249 100.814 84.4795 100.129 86.2318 101.472C87.1489 102.253 87.8686 103.241 88.332 104.354C88.7955 105.467 88.9896 106.674 88.8986 107.877Z" fill="#AEE06A"/>
<path d="M85.0588 116.463C80.2348 112.764 76.9536 104.87 77.7355 98.8285C78.0567 96.3672 78.9991 94.6332 80.3325 93.6123C77.8123 93.85 75.8995 95.9897 75.4457 99.7095C74.6568 105.751 77.938 113.645 82.769 117.344C85.6313 119.533 88.3958 119.763 90.3366 118.33C88.71 118.463 86.8948 117.882 85.0588 116.463Z" fill="#453C9E"/>
<path d="M83.139 117.148C78.308 113.449 75.0269 105.555 75.8088 99.5137C76.1718 96.7168 77.3446 94.8149 78.9782 93.9199C77.1282 94.6821 75.7878 96.6609 75.3969 99.6885C74.608 105.73 77.8891 113.624 82.7201 117.323C85.3171 119.309 87.8234 119.679 89.7013 118.659C87.8513 119.442 85.5475 118.994 83.139 117.148Z" fill="#42E8E0"/>
<path d="M146.884 143.684C146.437 145.947 145.33 148.026 143.703 149.659C142.076 151.292 140.002 152.405 137.743 152.857C135.485 153.309 133.143 153.08 131.014 152.199C128.886 151.318 127.066 149.824 125.785 147.907C124.503 145.99 123.819 143.736 123.817 141.429C123.815 139.122 124.496 136.867 125.774 134.947C127.052 133.028 128.87 131.532 130.997 130.648C133.124 129.763 135.466 129.531 137.725 129.979C140.754 130.58 143.42 132.362 145.138 134.932C146.856 137.502 147.484 140.65 146.884 143.684Z" fill="url(#paint11_radial_8148_55884)"/>
<g style="mix-blend-mode:lighten">
<path d="M146.884 143.684C146.437 145.947 145.33 148.026 143.703 149.659C142.076 151.292 140.002 152.405 137.743 152.857C135.485 153.309 133.143 153.08 131.014 152.199C128.886 151.318 127.066 149.824 125.785 147.907C124.503 145.99 123.819 143.736 123.817 141.429C123.815 139.122 124.496 136.867 125.774 134.947C127.052 133.028 128.87 131.532 130.997 130.648C133.124 129.763 135.466 129.531 137.725 129.979C140.754 130.58 143.42 132.362 145.138 134.932C146.856 137.502 147.484 140.65 146.884 143.684Z" fill="url(#paint12_linear_8148_55884)"/>
</g>
<path d="M154.033 180.057C153.377 185.595 148.49 196.091 144.064 195.566C139.638 195.042 137.362 183.679 138.018 178.142C138.674 172.604 142.8 168.534 147.219 169.052C151.639 169.569 154.696 174.513 154.033 180.057Z" fill="url(#paint13_radial_8148_55884)"/>
<path style="mix-blend-mode:lighten" d="M154.033 180.057C153.377 185.595 148.49 196.091 144.064 195.566C139.638 195.042 137.362 183.679 138.018 178.142C138.674 172.604 142.8 168.534 147.219 169.052C151.639 169.569 154.696 174.513 154.033 180.057Z" fill="url(#paint14_linear_8148_55884)"/>
<path d="M40.3792 144.404C39.9595 144.405 39.5516 144.265 39.221 144.006C38.8904 143.747 38.6563 143.385 38.5565 142.976C38.4566 142.568 38.4966 142.138 38.6702 141.755C38.8438 141.372 39.1408 141.059 39.5135 140.866L63.5498 128.28C63.7675 128.166 64.0056 128.095 64.2504 128.073C64.4953 128.051 64.7421 128.077 64.9768 128.151C65.2114 128.224 65.4294 128.343 65.6182 128.501C65.8069 128.659 65.9628 128.852 66.077 129.07C66.1911 129.288 66.2613 129.527 66.2834 129.772C66.3055 130.017 66.2792 130.264 66.2059 130.499C66.1327 130.734 66.0139 130.953 65.8564 131.142C65.699 131.331 65.5058 131.487 65.2881 131.601L41.2449 144.187C40.9786 144.33 40.6812 144.405 40.3792 144.404Z" fill="#42E8E0"/>
<path d="M40.8121 151.396C35.9252 154.081 24.5599 156.2 22.4166 152.284C20.2734 148.369 28.1691 139.915 33.056 137.23C37.9428 134.545 43.6395 135.545 45.7827 139.461C47.9259 143.376 45.6989 148.718 40.8121 151.396Z" fill="url(#paint15_radial_8148_55884)"/>
<path style="mix-blend-mode:lighten" d="M40.8121 151.396C35.9252 154.081 24.5599 156.2 22.4166 152.284C20.2734 148.369 28.1691 139.915 33.056 137.23C37.9428 134.545 43.6395 135.545 45.7827 139.461C47.9259 143.376 45.6989 148.718 40.8121 151.396Z" fill="url(#paint16_linear_8148_55884)"/>
<g opacity="0.5">
<path opacity="0.5" d="M39.325 56.9728C56.7292 51.7216 67.0893 71.4748 56.9176 90.5356C48.2819 106.702 27.2406 118.379 21.7394 101.402C18.5001 91.4167 21.1809 66.9368 37.6495 57.7C33.2165 60.0005 29.9702 63.2519 26.7589 68.573C32.8325 76.0547 33.3282 76.67 38.5711 82.7113C44.7843 68.0276 45.287 66.8179 49.8806 56.8819C46.4664 55.6299 42.7137 55.6672 39.325 56.9868V56.9728Z" fill="#77DF68"/>
<path d="M9.8855 75.705C10.9048 74.6375 11.9961 73.5864 13.1597 72.5515V123.406C11.9938 124.434 10.9048 125.504 9.8855 126.56V75.705Z" fill="#42E8E0"/>
<path d="M4.67041 100.213C5.40645 99.0504 6.20342 97.9277 7.05798 96.8496V129.818C6.20504 130.897 5.40813 132.02 4.67041 133.181V100.213Z" fill="#42E8E0"/>
<path opacity="0.5" d="M0 138.544L0.0558508 138.656L0.118679 135.321L0 135.139V138.544ZM0 148.376V97.5279C0 97.1992 0 96.8706 0 96.5489C0.0949526 94.2221 0.496346 91.9181 1.19378 89.6965V140.544C0.496346 142.766 0.0949526 145.07 0 147.397C0 147.725 0 148.054 0 148.376Z" fill="#42E8E0"/>
<path d="M0 138.538L0.055938 138.657L0.118868 135.321L0 135.139V138.538Z" fill="#42E8E0"/>
<path d="M38.9063 57.1127H38.9831L38.8993 57.1476L38.9063 57.1127Z" fill="#42E8E0"/>
<path d="M38.5712 57.2735C42.1407 55.6522 46.2046 55.5065 49.8808 56.868C43.3882 71.1951 42.7111 72.6915 38.5712 82.6974C32.1764 75.2436 31.1921 74.1039 26.759 68.559C28.0156 66.4613 31.8274 60.1194 38.5712 57.2735Z" fill="#ADE06A"/>
<path opacity="0.5" d="M78.8526 182.358C73.6307 183.91 70.2797 180.729 69.0789 179.792C59.4868 171.66 51.0884 161.738 41.4683 153.641C38.627 151.25 36.8886 152.242 35.8833 152.501C17.9487 159.633 17.9487 159.633 15.0724 155.298C9.8016 145.949 9.62008 145.194 7.16968 139.356C6.61119 138.02 4.71929 135.999 3.87457 136.104C-0.153584 137.244 0.383962 138.069 0.00697736 138.559V135.153C4.75419 133.321 5.24287 133.105 7.16968 137.531C16.0358 156.368 17.5926 155.948 19.6591 155.459C38.5083 147.893 38.3058 148.467 43.1159 153.452C51.4375 162.136 68.2482 179.037 73.4073 180.379C75.2898 180.543 77.1863 180.408 79.0271 179.981C97.2481 173.862 104.481 170.024 122.311 162.325L123.909 164.919C117.305 167.8 97.3807 175.666 78.9922 181.456L78.8526 182.358ZM135.819 202.859V152.026C130.234 152.34 124.489 152.48 118.68 152.431C52.701 151.914 0 127.427 0 97.542V148.39C0 178.275 52.701 202.761 118.68 203.286C124.489 203.328 130.213 203.188 135.819 202.873V202.859Z" fill="#4DED30"/>
<path d="M78.8526 182.358C74.1543 183.561 69.7142 184.7 42.0826 154.92C38.592 151.424 38.592 151.424 20.6364 158.563C18.5979 159.06 15.5192 159.808 7.03006 139.537C4.41211 133.545 0.0488684 138.489 0 138.545V135.139C1.17246 134.412 2.4622 133.894 3.81173 133.608C4.21993 133.487 4.6585 133.525 5.04042 133.713C5.64081 134.021 6.24119 134.727 7.28837 136.957C12.1752 147.39 12.1752 147.39 15.7007 153.095C17.7951 156.179 17.7951 156.179 34.6197 149.48C35.7716 149.173 38.1662 148.523 41.7755 151.41C51.9192 159.514 60.1779 169.653 70.1959 177.904C73.9518 180.582 76.2207 182.197 122.311 162.311L123.909 164.905C117.305 167.786 97.2201 176.561 78.8526 182.386V182.358Z" fill="#ACE16A"/>
</g>
<g filter="url(#filter0_f_8148_55884)">
<path d="M114.521 36.4801C113.674 36.2167 113.173 36.8003 113.406 37.7815C113.667 38.8747 113.804 39.9938 113.814 41.1177C113.814 44.2732 112.585 46.5301 110.359 47.47C108.133 48.4099 105.163 47.9245 102.008 46.0963C98.6147 44.0366 95.7554 41.2056 93.6621 37.8331C91.431 34.3162 90.2019 30.6391 90.2019 27.5042C90.2019 24.3694 91.431 22.0971 93.6621 21.1571C95.8931 20.2172 98.8575 20.7027 102.008 22.5257C103.671 23.5054 105.2 24.6962 106.558 26.0685C107.369 26.8742 108.303 27.0343 108.623 26.4197C108.944 25.8051 108.582 24.6483 107.771 23.8375C106.047 22.0954 104.104 20.5835 101.992 19.3392C100.2 18.2563 98.2233 17.5123 96.1617 17.1444C94.561 16.8493 92.9097 17.0085 91.3949 17.604C90.0256 18.1786 88.8927 19.2022 88.1826 20.5064C87.3547 22.0988 86.9493 23.877 87.0051 25.6709C87.041 27.8929 87.4387 30.0942 88.1826 32.1884C88.9917 34.513 90.0697 36.735 91.3949 38.8092C92.7613 40.9656 94.3598 42.9658 96.1617 44.7742C97.9053 46.5316 99.8705 48.0541 102.008 49.3034C103.801 50.3895 105.78 51.1353 107.844 51.5035C109.443 51.7989 111.092 51.6397 112.605 51.0438C113.976 50.472 115.11 49.4477 115.818 48.1414C116.645 46.5488 117.05 44.7707 116.995 42.9769C116.985 41.5502 116.812 40.1293 116.479 38.7421C116.354 38.2374 116.112 37.7693 115.771 37.3762C115.431 36.983 115.003 36.6759 114.521 36.4801Z" fill="url(#paint17_linear_8148_55884)"/>
<path d="M97.0387 29.5752C96.419 28.594 95.4119 28.0259 94.7922 28.2738C94.1724 28.5217 94.1673 29.5391 94.7922 30.5203L100.106 38.9074C100.387 39.3578 100.772 39.7348 101.227 40.0074L101.315 40.0591C101.484 40.1728 101.68 40.2395 101.883 40.2522C102.087 40.2649 102.29 40.2232 102.472 40.1314L113.834 32.4932C114.381 32.1265 114.272 31.0574 113.586 30.1123C112.899 29.1673 111.897 28.7025 111.349 29.0795L101.098 35.974L97.0387 29.5752Z" fill="url(#paint18_linear_8148_55884)"/>
</g>
<path d="M114.521 36.4801C113.674 36.2167 113.173 36.8003 113.406 37.7815C113.667 38.8747 113.804 39.9938 113.814 41.1177C113.814 44.2732 112.585 46.5301 110.359 47.47C108.133 48.4099 105.163 47.9245 102.008 46.0963C98.6147 44.0366 95.7554 41.2056 93.6621 37.8331C91.431 34.3162 90.2019 30.6391 90.2019 27.5042C90.2019 24.3694 91.431 22.0971 93.6621 21.1571C95.8931 20.2172 98.8575 20.7027 102.008 22.5257C103.671 23.5054 105.2 24.6962 106.558 26.0685C107.369 26.8742 108.303 27.0343 108.623 26.4197C108.944 25.8051 108.582 24.6483 107.771 23.8375C106.047 22.0954 104.104 20.5835 101.992 19.3392C100.2 18.2563 98.2233 17.5123 96.1617 17.1444C94.561 16.8493 92.9097 17.0085 91.3949 17.604C90.0256 18.1786 88.8927 19.2022 88.1826 20.5064C87.3547 22.0988 86.9493 23.877 87.0051 25.6709C87.041 27.8929 87.4387 30.0942 88.1826 32.1884C88.9917 34.513 90.0697 36.735 91.3949 38.8092C92.7613 40.9656 94.3598 42.9658 96.1617 44.7742C97.9053 46.5316 99.8705 48.0541 102.008 49.3034C103.801 50.3895 105.78 51.1353 107.844 51.5035C109.443 51.7989 111.092 51.6397 112.605 51.0438C113.976 50.472 115.11 49.4477 115.818 48.1414C116.645 46.5488 117.05 44.7707 116.995 42.9769C116.985 41.5502 116.812 40.1293 116.479 38.7421C116.354 38.2374 116.112 37.7693 115.771 37.3762C115.431 36.983 115.003 36.6759 114.521 36.4801Z" fill="url(#paint19_linear_8148_55884)"/>
<path d="M97.0387 29.5752C96.419 28.594 95.4119 28.0259 94.7922 28.2738C94.1724 28.5217 94.1673 29.5391 94.7922 30.5203L100.106 38.9074C100.387 39.3578 100.772 39.7348 101.227 40.0074L101.315 40.0591C101.484 40.1728 101.68 40.2395 101.883 40.2522C102.087 40.2649 102.29 40.2232 102.472 40.1314L113.834 32.4932C114.381 32.1265 114.272 31.0574 113.586 30.1123C112.899 29.1673 111.897 28.7025 111.349 29.0795L101.098 35.974L97.0387 29.5752Z" fill="url(#paint20_linear_8148_55884)"/>
</g>
<defs>
<filter id="filter0_f_8148_55884" x="81" y="11" width="42" height="46.6479" filterUnits="userSpaceOnUse" color-interpolation-filters="sRGB">
<feFlood flood-opacity="0" result="BackgroundImageFix"/>
<feBlend mode="normal" in="SourceGraphic" in2="BackgroundImageFix" result="shape"/>
<feGaussianBlur stdDeviation="3" result="effect1_foregroundBlur_8148_55884"/>
</filter>
<linearGradient id="paint0_linear_8148_55884" x1="185.686" y1="186.008" x2="16.8316" y2="186.008" gradientUnits="userSpaceOnUse">
<stop stop-color="#5761D7"/>
<stop offset="0.07" stop-color="#5472D8"/>
<stop offset="0.28" stop-color="#4E9CDB"/>
<stop offset="0.48" stop-color="#49BDDD"/>
<stop offset="0.67" stop-color="#45D5DF"/>
<stop offset="0.85" stop-color="#43E3E0"/>
<stop offset="1" stop-color="#42E8E0"/>
</linearGradient>
<linearGradient id="paint1_linear_8148_55884" x1="101" y1="234" x2="186" y2="185" gradientUnits="userSpaceOnUse">
<stop stop-color="#77DF68"/>
<stop offset="1" stop-color="#417938"/>
</linearGradient>
<radialGradient id="paint2_radial_8148_55884" cx="0" cy="0" r="1" gradientUnits="userSpaceOnUse" gradientTransform="translate(126.896 89.6179) rotate(11.2173) scale(67.212 67.3104)">
<stop stop-color="#C0BFF6"/>
<stop offset="1" stop-color="#393091"/>
</radialGradient>
<radialGradient id="paint3_radial_8148_55884" cx="0" cy="0" r="1" gradientUnits="userSpaceOnUse" gradientTransform="translate(120.221 138.168) scale(51.7905 70.4935)">
<stop stop-color="#C0BFF6"/>
<stop offset="1" stop-color="#393091"/>
</radialGradient>
<linearGradient id="paint4_linear_8148_55884" x1="102.442" y1="185.337" x2="102.442" y2="114.873" gradientUnits="userSpaceOnUse">
<stop stop-color="#42E6DF"/>
<stop offset="0.14" stop-color="#40B6CB"/>
<stop offset="0.27" stop-color="#3E8DB9"/>
<stop offset="0.41" stop-color="#3C6BAA"/>
<stop offset="0.55" stop-color="#3B519F"/>
<stop offset="0.69" stop-color="#3A3F97"/>
<stop offset="0.84" stop-color="#393493"/>
<stop offset="1" stop-color="#393091"/>
</linearGradient>
<radialGradient id="paint5_radial_8148_55884" cx="0" cy="0" r="1" gradientUnits="userSpaceOnUse" gradientTransform="translate(70.9917 50.8966) scale(36.379 36.4366)">
<stop stop-color="#C0BFF6"/>
<stop offset="1" stop-color="#393091"/>
</radialGradient>
<radialGradient id="paint6_radial_8148_55884" cx="0" cy="0" r="1" gradientUnits="userSpaceOnUse" gradientTransform="translate(121.584 94.0108) scale(51.8214 51.9035)">
<stop stop-color="#C0BFF6"/>
<stop offset="1" stop-color="#393091"/>
</radialGradient>
<linearGradient id="paint7_linear_8148_55884" x1="98.1835" y1="128.972" x2="106.748" y2="68.1502" gradientUnits="userSpaceOnUse">
<stop stop-color="#42E6DF"/>
<stop offset="0.14" stop-color="#40B6CB"/>
<stop offset="0.27" stop-color="#3E8DB9"/>
<stop offset="0.41" stop-color="#3C6BAA"/>
<stop offset="0.55" stop-color="#3B519F"/>
<stop offset="0.69" stop-color="#3A3F97"/>
<stop offset="0.84" stop-color="#393493"/>
<stop offset="1" stop-color="#393091"/>
</linearGradient>
<radialGradient id="paint8_radial_8148_55884" cx="0" cy="0" r="1" gradientUnits="userSpaceOnUse" gradientTransform="translate(121.173 93.4586) scale(24.6087 24.6477)">
<stop stop-color="#C0BFF6"/>
<stop offset="1" stop-color="#393091"/>
</radialGradient>
<linearGradient id="paint9_linear_8148_55884" x1="116.216" y1="118.092" x2="124.89" y2="94.3065" gradientUnits="userSpaceOnUse">
<stop stop-color="#42E6DF"/>
<stop offset="0.14" stop-color="#40B6CB"/>
<stop offset="0.27" stop-color="#3E8DB9"/>
<stop offset="0.41" stop-color="#3C6BAA"/>
<stop offset="0.55" stop-color="#3B519F"/>
<stop offset="0.69" stop-color="#3A3F97"/>
<stop offset="0.84" stop-color="#393493"/>
<stop offset="1" stop-color="#393091"/>
</linearGradient>
<linearGradient id="paint10_linear_8148_55884" x1="129.501" y1="207" x2="129.501" y2="4.94861e-07" gradientUnits="userSpaceOnUse">
<stop stop-color="#94E069"/>
<stop offset="1" stop-color="#517A39" stop-opacity="0"/>
</linearGradient>
<radialGradient id="paint11_radial_8148_55884" cx="0" cy="0" r="1" gradientUnits="userSpaceOnUse" gradientTransform="translate(142.369 133.807) rotate(11.2173) scale(24.289 24.3246)">
<stop stop-color="#C0BFF6"/>
<stop offset="1" stop-color="#393091"/>
</radialGradient>
<linearGradient id="paint12_linear_8148_55884" x1="126.051" y1="148.277" x2="144.909" y2="134.592" gradientUnits="userSpaceOnUse">
<stop stop-color="#42E6DF"/>
<stop offset="0.14" stop-color="#40B6CB"/>
<stop offset="0.27" stop-color="#3E8DB9"/>
<stop offset="0.41" stop-color="#3C6BAA"/>
<stop offset="0.55" stop-color="#3B519F"/>
<stop offset="0.69" stop-color="#3A3F97"/>
<stop offset="0.84" stop-color="#393493"/>
<stop offset="1" stop-color="#393091"/>
</linearGradient>
<radialGradient id="paint13_radial_8148_55884" cx="0" cy="0" r="1" gradientUnits="userSpaceOnUse" gradientTransform="translate(157.885 172.235) rotate(6.90323) scale(20.6249 34.0458)">
<stop stop-color="#C0BFF6"/>
<stop offset="1" stop-color="#393091"/>
</radialGradient>
<linearGradient id="paint14_linear_8148_55884" x1="136.449" y1="181.594" x2="152.442" y2="183.555" gradientUnits="userSpaceOnUse">
<stop stop-color="#42E6DF"/>
<stop offset="0.14" stop-color="#40B6CB"/>
<stop offset="0.27" stop-color="#3E8DB9"/>
<stop offset="0.41" stop-color="#3C6BAA"/>
<stop offset="0.55" stop-color="#3B519F"/>
<stop offset="0.69" stop-color="#3A3F97"/>
<stop offset="0.84" stop-color="#393493"/>
<stop offset="1" stop-color="#393091"/>
</linearGradient>
<radialGradient id="paint15_radial_8148_55884" cx="0" cy="0" r="1" gradientUnits="userSpaceOnUse" gradientTransform="translate(62.5149 139.419) rotate(61.2275) scale(20.5682 34.1494)">
<stop stop-color="#C0BFF6"/>
<stop offset="1" stop-color="#393091"/>
</radialGradient>
<linearGradient id="paint16_linear_8148_55884" x1="48.0583" y1="154.579" x2="30.2373" y2="149.939" gradientUnits="userSpaceOnUse">
<stop stop-color="#42E6DF"/>
<stop offset="0.14" stop-color="#40B6CB"/>
<stop offset="0.27" stop-color="#3E8DB9"/>
<stop offset="0.41" stop-color="#3C6BAA"/>
<stop offset="0.55" stop-color="#3B519F"/>
<stop offset="0.69" stop-color="#3A3F97"/>
<stop offset="0.84" stop-color="#393493"/>
<stop offset="1" stop-color="#393091"/>
</linearGradient>
<linearGradient id="paint17_linear_8148_55884" x1="114.098" y1="28.4523" x2="98.3957" y2="38.9104" gradientUnits="userSpaceOnUse">
<stop stop-color="#B4E06A"/>
<stop offset="1" stop-color="#77DF68"/>
</linearGradient>
<linearGradient id="paint18_linear_8148_55884" x1="113.203" y1="27.1079" x2="97.5014" y2="37.5659" gradientUnits="userSpaceOnUse">
<stop stop-color="#B4E06A"/>
<stop offset="1" stop-color="#77DF68"/>
</linearGradient>
<linearGradient id="paint19_linear_8148_55884" x1="114.098" y1="28.4523" x2="98.3957" y2="38.9104" gradientUnits="userSpaceOnUse">
<stop stop-color="#B4E06A"/>
<stop offset="1" stop-color="#77DF68"/>
</linearGradient>
<linearGradient id="paint20_linear_8148_55884" x1="113.203" y1="27.1079" x2="97.5014" y2="37.5659" gradientUnits="userSpaceOnUse">
<stop stop-color="#B4E06A"/>
<stop offset="1" stop-color="#77DF68"/>
</linearGradient>
<clipPath id="clip0_8148_55884">
<rect width="186" height="260" fill="white"/>
</clipPath>
</defs>
</svg>
