<svg width="80" height="75" viewBox="0 0 80 75" fill="none" xmlns="http://www.w3.org/2000/svg">
<g clip-path="url(#clip0_8193_37442)">
<path d="M53.2442 20.6932C53.2063 21.3256 53.1326 21.9054 53.0505 22.5062C52.9685 23.107 52.8569 23.6951 52.7306 24.2854C52.4845 25.4801 52.1287 26.6494 51.6678 27.7785L51.4763 28.2002L51.43 28.3056L51.4132 28.3604L51.3795 28.4278C51.3151 28.5602 51.2338 28.6835 51.1375 28.7946C51.0227 28.9239 50.8859 29.0317 50.7334 29.113C50.5837 29.1916 50.4212 29.243 50.2535 29.2647C49.9961 29.2923 49.7357 29.265 49.4896 29.1846C49.1408 29.0654 48.8117 28.8949 48.513 28.6787C48.2518 28.4942 48.0022 28.2935 47.7659 28.0779C46.8801 27.2552 46.083 26.3416 45.3877 25.3521L46.0843 24.7597C46.5052 25.1497 46.9262 25.5439 47.3471 25.9171C47.7656 26.2901 48.2025 26.6419 48.6561 26.9711C48.8697 27.1241 49.0917 27.2649 49.3212 27.3927C49.5062 27.5051 49.7059 27.591 49.9147 27.6478C49.9862 27.6626 50.0368 27.6478 50.0136 27.6478C49.964 27.6533 49.9175 27.6748 49.881 27.709C49.8684 27.709 49.8684 27.709 49.881 27.709L49.9484 27.534L50.0957 27.1503C50.4608 26.094 50.7457 25.0116 50.948 23.9123C51.0596 23.3599 51.1375 22.7971 51.2216 22.2384C51.3058 21.6798 51.3648 21.1043 51.4132 20.5709L53.2442 20.6932Z" fill="#FFC3BD"/>
<path d="M51.9686 18.3722C51.1836 18.5724 50.6343 21.8063 50.6343 21.8063L52.7957 23.2819C52.7957 23.2819 54.8687 20.0207 54.2689 19.1564C53.6375 18.252 53.1135 18.0813 51.9686 18.3722Z" fill="#407BFF"/>
<path d="M51.9686 18.3722C51.1836 18.5724 50.6343 21.8063 50.6343 21.8063L52.7957 23.2819C52.7957 23.2819 54.8687 20.0207 54.2689 19.1564C53.6375 18.252 53.1135 18.0813 51.9686 18.3722Z" fill="#407BFF"/>
<path opacity="0.4" d="M51.9686 18.3722C51.1836 18.5724 50.6343 21.8063 50.6343 21.8063L52.7957 23.2819C52.7957 23.2819 54.8687 20.0207 54.2689 19.1564C53.6375 18.252 53.1135 18.0813 51.9686 18.3722Z" fill="black"/>
<path opacity="0.3" d="M52.038 19.0952L51.436 22.3522L52.6504 23.1786L52.038 19.0952Z" fill="black"/>
<path d="M46.1198 24.6269L45.0991 22.9995L44.5161 24.8483C44.5161 24.8483 45.3579 25.7337 46.1219 25.5228L46.1198 24.6269Z" fill="#FFC3BD"/>
<path d="M43.5839 22.4619L43.1777 24.0345L44.5078 24.8482L45.0908 22.9994L43.5839 22.4619Z" fill="#FFC3BD"/>
<path d="M56.2116 72.7886H54.309L54.1807 68.3743H56.0832L56.2116 72.7886Z" fill="#FFC3BD"/>
<path d="M73.0039 63.9346L71.5538 65.1699L68.2349 62.2017L69.6849 60.9664L73.0039 63.9346Z" fill="#FFC3BD"/>
<path d="M71.1565 65.0224L72.5645 63.4076C72.5885 63.3797 72.6219 63.3616 72.6582 63.3566C72.6946 63.3516 72.7316 63.3599 72.7623 63.3802L74.1955 64.3098C74.2309 64.3344 74.2606 64.3663 74.2828 64.4032C74.305 64.4401 74.3192 64.4814 74.3244 64.5242C74.3295 64.567 74.3256 64.6104 74.3128 64.6516C74.3001 64.6927 74.2787 64.7307 74.2503 64.7631C73.7494 65.3175 73.48 65.5599 72.8612 66.2683C72.4824 66.7046 71.971 67.3834 71.4448 67.9843C70.9187 68.5851 70.2957 68.1002 70.462 67.8008C71.2007 66.4643 71.0239 65.9963 71.0365 65.3386C71.0384 65.2224 71.0809 65.1105 71.1565 65.0224Z" fill="#263238"/>
<path d="M54.2435 72.5694H56.3818C56.4186 72.569 56.4543 72.5821 56.4822 72.6062C56.51 72.6302 56.5282 72.6636 56.5333 72.7001L56.7775 74.3866C56.7843 74.4312 56.7813 74.4767 56.7685 74.5199C56.7557 74.5632 56.7336 74.6031 56.7036 74.6367C56.6736 74.6704 56.6366 74.6969 56.5951 74.7146C56.5537 74.7322 56.5089 74.7404 56.4639 74.7386C55.7189 74.726 55.359 74.6817 54.4182 74.6817C53.8395 74.6817 52.644 74.7429 51.8443 74.7429C51.0446 74.7429 51.0025 73.9502 51.3371 73.8806C52.8272 73.5581 53.4143 73.1154 53.9173 72.6917C54.0078 72.6128 54.1236 72.5694 54.2435 72.5694Z" fill="#263238"/>
<path opacity="0.2" d="M54.1807 68.3763L54.2459 70.651H56.1506L56.0853 68.3763H54.1807Z" fill="black"/>
<path opacity="0.2" d="M69.6849 60.9685L68.2349 62.2017L69.9459 63.7322L71.3981 62.4969L69.6849 60.9685Z" fill="black"/>
<path d="M51.9687 18.3721C51.9687 18.3721 51.0616 18.6926 52.8779 29.8782H60.606C60.4776 26.7265 60.4734 24.7829 61.9761 18.3173C60.8942 18.0939 59.7977 17.9487 58.695 17.8831C57.5263 17.7996 56.3532 17.7996 55.1845 17.8831C53.6776 18.0306 51.9687 18.3721 51.9687 18.3721Z" fill="#407BFF"/>
<path opacity="0.4" d="M51.9687 18.3721C51.9687 18.3721 51.0616 18.6926 52.8779 29.8782H60.606C60.4776 26.7265 60.4734 24.7829 61.9761 18.3173C60.8942 18.0939 59.7977 17.9487 58.695 17.8831C57.5263 17.7996 56.3532 17.7996 55.1845 17.8831C53.6776 18.0306 51.9687 18.3721 51.9687 18.3721Z" fill="black"/>
<path d="M58.6949 17.8831C57.5262 17.7996 56.3531 17.7996 55.1844 17.8831C54.995 17.8999 54.8014 17.921 54.6099 17.9442C54.5306 18.064 54.48 18.2004 54.4617 18.343C54.4435 18.4855 54.4582 18.6304 54.5047 18.7663C54.7509 19.3798 55.639 19.4515 56.2873 19.4515C58.6802 19.4515 59.0843 18.0517 59.1011 17.9927L59.1243 17.9083C58.9896 17.8999 58.838 17.8894 58.6949 17.8831Z" fill="white"/>
<path d="M58.3584 13.9261C58.1353 15.0561 57.9164 17.1284 58.7056 17.8831C58.7056 17.8831 58.3962 19.032 56.298 19.032C53.9829 19.032 55.1952 17.8852 55.1952 17.8852C56.4579 17.5837 56.4221 16.6477 56.2033 15.7771L58.3584 13.9261Z" fill="#FFC3BD"/>
<path opacity="0.2" d="M57.4678 14.6766L56.1924 15.7665C56.2473 15.9737 56.2839 16.1853 56.3018 16.399C56.7817 16.3294 57.4425 15.8003 57.4951 15.2964C57.5246 15.0899 57.5154 14.8797 57.4678 14.6766Z" fill="black"/>
<path d="M57.0344 7.7747C56.8387 7.11065 56.6746 6.06503 57.8531 5.59281C57.3922 5.02784 57.2807 3.96536 57.8531 3.33504C58.4256 2.70471 59.2843 2.9366 59.2843 2.9366C59.2843 2.9366 59.5368 1.39558 61.4078 1.67174C63.2788 1.9479 62.4454 3.18114 62.4454 3.18114C62.4454 3.18114 64.9982 2.6752 65.1687 5.07844C65.3392 7.48168 63.8744 7.18654 63.8744 7.18654C63.8744 7.18654 65.013 8.14362 64.3816 9.19556C63.7502 10.2475 62.2917 9.88491 62.2917 9.88491C62.2917 9.88491 61.6056 11.7443 59.9893 10.686C58.373 9.62773 57.0344 7.7747 57.0344 7.7747Z" fill="#263238"/>
<path d="M53.2439 9.17658C52.6126 9.99453 52.8904 10.92 53.4544 11.2847C54.8119 12.1532 56.7755 8.51042 56.264 8.07405C55.7526 7.63767 53.8753 8.35653 53.2439 9.17658Z" fill="#263238"/>
<path d="M58.9455 7.22874C58.0532 6.86826 57.1482 7.24561 56.8662 7.7895C56.178 9.1155 59.3033 11.504 60.2083 9.84701C60.745 8.86252 59.8653 7.59977 58.9455 7.22874Z" fill="#407BFF"/>
<path d="M58.5687 11.2847C58.634 13.182 58.7013 13.9746 57.8448 15.0308C56.5588 16.6182 54.2249 16.2851 53.5977 14.4511C53.0336 12.8004 53.0231 9.9861 54.7889 9.06275C55.177 8.85709 55.6112 8.75423 56.0502 8.76393C56.4893 8.77364 56.9185 8.8956 57.2972 9.11822C57.6759 9.34085 57.9915 9.65674 58.2141 10.0359C58.4366 10.4151 58.5587 10.845 58.5687 11.2847Z" fill="#FFC3BD"/>
<path d="M58.2848 12.2776C57.4429 11.9635 57.2325 10.9791 57.3672 10.5912C56.9462 10.5743 56.0265 10.4225 55.6835 9.89971C55.0268 10.3213 53.6399 10.7429 53.4905 10.0409C53.3411 9.33895 55.433 7.53441 57.0157 7.39528C58.8972 7.23085 60.7535 9.08176 60.2757 10.8547C59.798 12.6276 58.2848 12.2776 58.2848 12.2776Z" fill="#263238"/>
<path d="M52.8862 29.8782C52.8862 29.8782 51.3856 44.5611 51.5097 50.3753C51.6402 56.4213 53.8522 70.2104 53.8522 70.2104H56.424C56.424 70.2104 56.0178 56.7734 56.2451 50.8369C56.4934 44.363 58.5454 29.8782 58.5454 29.8782H52.8862Z" fill="#263238"/>
<path d="M56.6385 70.3031H53.6184L53.3975 69.3397L56.7796 69.2217L56.6385 70.3031Z" fill="#407BFF"/>
<path opacity="0.2" d="M56.2117 33.5315C54.3175 37.3556 55.8307 44.3335 56.5021 46.9306C56.8451 43.0307 57.426 38.2642 57.8785 34.7648C57.5923 32.7874 57.0956 31.7671 56.2117 33.5315Z" fill="black"/>
<path d="M54.9194 29.8782C54.9194 29.8782 56.6705 45.143 57.9921 50.0443C59.5622 55.8627 69.3128 63.6943 69.3128 63.6943L71.2911 62.0078C71.2911 62.0078 64.2239 53.4995 63.0221 50.4343C60.4608 43.8992 62.6538 34.1429 60.6061 29.874L54.9194 29.8782Z" fill="#263238"/>
<path d="M71.6043 61.9214L69.1504 64.0084L68.2349 63.4582L71.0108 60.8715L71.6043 61.9214Z" fill="#407BFF"/>
<path d="M55.7674 12.0769C55.7822 12.2305 55.7127 12.361 55.6138 12.3715C55.5149 12.3821 55.4202 12.2642 55.4033 12.1127C55.3865 11.9611 55.4581 11.8264 55.5591 11.818C55.6601 11.8096 55.7527 11.9169 55.7674 12.0769Z" fill="#263238"/>
<path d="M54.0415 12.2434C54.0563 12.395 53.9868 12.5276 53.8858 12.5381C53.7848 12.5486 53.6943 12.4307 53.6753 12.2771C53.6564 12.1235 53.7301 11.993 53.829 11.9846C53.9279 11.9762 54.0268 12.0898 54.0415 12.2434Z" fill="#263238"/>
<path d="M53.8777 11.9887L53.501 11.9171C53.501 11.9171 53.7283 12.1865 53.8777 11.9887Z" fill="#263238"/>
<path d="M54.5217 12.4631C54.4192 12.8251 54.2677 13.1712 54.0713 13.4919C54.1548 13.54 54.2477 13.5694 54.3436 13.5782C54.4395 13.5869 54.5361 13.5747 54.6269 13.5425L54.5217 12.4631Z" fill="#ED847E"/>
<path d="M55.4747 14.0463C55.3913 14.0692 55.3061 14.0847 55.22 14.0927C55.2142 14.0933 55.2084 14.0927 55.2028 14.091C55.1972 14.0893 55.192 14.0865 55.1875 14.0828C55.183 14.0791 55.1793 14.0745 55.1765 14.0693C55.1738 14.0641 55.1721 14.0585 55.1716 14.0527C55.1704 14.0407 55.1739 14.0287 55.1814 14.0193C55.1888 14.0098 55.1997 14.0036 55.2116 14.0021C55.4021 13.988 55.5866 13.9294 55.7504 13.8309C55.9142 13.7324 56.0526 13.5968 56.1545 13.435C56.1569 13.4294 56.1605 13.4244 56.165 13.4203C56.1695 13.4163 56.1748 13.4132 56.1806 13.4114C56.1864 13.4096 56.1925 13.4091 56.1986 13.4099C56.2046 13.4107 56.2104 13.4128 56.2155 13.416C56.2259 13.4218 56.2337 13.4314 56.2372 13.4428C56.2407 13.4542 56.2397 13.4665 56.2344 13.4771C56.0647 13.7586 55.7922 13.9627 55.4747 14.0463Z" fill="#263238"/>
<path d="M59.0109 12.5939C58.9648 12.9566 58.7771 13.2864 58.4889 13.5109C58.1038 13.806 57.7334 13.5109 57.6892 13.0492C57.6513 12.6276 57.8028 11.9952 58.2616 11.8729C58.3617 11.8525 58.4653 11.8567 58.5634 11.8852C58.6616 11.9137 58.7513 11.9656 58.825 12.0365C58.8987 12.1074 58.9541 12.1952 58.9865 12.2923C59.0188 12.3893 59.0272 12.4928 59.0109 12.5939Z" fill="#FFC3BD"/>
<path d="M55.9529 10.9933C55.9412 10.9962 55.929 10.9968 55.9171 10.995C55.9052 10.9932 55.8937 10.989 55.8834 10.9827C55.788 10.9219 55.6796 10.8844 55.5669 10.8734C55.4543 10.8624 55.3406 10.8783 55.2352 10.9196C55.2133 10.9293 55.1886 10.9304 55.1659 10.9226C55.1433 10.9148 55.1244 10.8987 55.1132 10.8775C55.103 10.856 55.1017 10.8314 55.1096 10.8089C55.1175 10.7864 55.1339 10.768 55.1553 10.7576C55.2878 10.7028 55.4315 10.6807 55.5744 10.6932C55.7172 10.7057 55.855 10.7523 55.976 10.8291C55.986 10.8352 55.9947 10.8431 56.0016 10.8525C56.0085 10.862 56.0135 10.8727 56.0162 10.884C56.019 10.8954 56.0194 10.9071 56.0176 10.9187C56.0158 10.9302 56.0116 10.9412 56.0055 10.9512C55.9939 10.9713 55.9751 10.9863 55.9529 10.9933Z" fill="#263238"/>
<path d="M53.1958 11.5187C53.1741 11.527 53.1501 11.527 53.1284 11.5187C53.108 11.5068 53.0929 11.4874 53.0863 11.4647C53.0796 11.442 53.0819 11.4175 53.0926 11.3964C53.1569 11.2681 53.251 11.1573 53.3672 11.0732C53.4833 10.9892 53.618 10.9344 53.7598 10.9137C53.7716 10.9125 53.7835 10.9138 53.7948 10.9173C53.8061 10.9208 53.8166 10.9266 53.8256 10.9343C53.8346 10.9419 53.842 10.9513 53.8473 10.9619C53.8527 10.9725 53.8558 10.9841 53.8566 10.9959C53.8584 11.0196 53.8507 11.0431 53.8354 11.0612C53.82 11.0794 53.7982 11.0907 53.7745 11.0929C53.6629 11.1117 53.5572 11.1566 53.4662 11.224C53.3751 11.2914 53.3012 11.3794 53.2505 11.4808C53.2445 11.4906 53.2366 11.499 53.2271 11.5055C53.2177 11.5121 53.207 11.5166 53.1958 11.5187Z" fill="#263238"/>
<path d="M62.7652 20.3727C63.1943 21.4243 63.5646 22.499 63.8743 23.5918C64.2026 24.6942 64.4363 25.8226 64.573 26.9648C64.6088 27.2557 64.6193 27.5614 64.632 27.8628V28.0336C64.632 28.0947 64.6214 28.158 64.613 28.2128C64.5955 28.3181 64.5716 28.4223 64.5415 28.5248C64.4866 28.7001 64.4162 28.8701 64.331 29.0328C64.0392 29.5733 63.6815 30.0754 63.2661 30.5275C62.4979 31.3728 61.6523 32.1442 60.7406 32.8316L60.1323 32.1549C60.8332 31.3349 61.5403 30.4937 62.1401 29.6252C62.4299 29.2311 62.6768 28.807 62.8767 28.3603C62.911 28.2739 62.9391 28.1851 62.9609 28.0947C62.9666 28.0641 62.9701 28.0331 62.9714 28.002C62.9725 27.9929 62.9725 27.9837 62.9714 27.9746V27.9451C62.9441 27.6963 62.9251 27.4475 62.8788 27.1925C62.6978 26.1511 62.4453 25.1234 62.1233 24.1167C61.8013 23.0964 61.4414 22.0613 61.071 21.0747L62.7652 20.3727Z" fill="#FFC3BD"/>
<path d="M61.9759 18.3173C62.7504 18.5534 63.6807 21.2244 63.6807 21.2244L60.6732 23.3747C60.6732 23.3747 59.5767 21.1464 59.9029 20.1429C60.2523 19.0994 61.0941 18.0475 61.9759 18.3173Z" fill="#407BFF"/>
<path opacity="0.4" d="M61.9759 18.3173C62.7504 18.5534 63.6807 21.2244 63.6807 21.2244L60.6732 23.3747C60.6732 23.3747 59.5767 21.1464 59.9029 20.1429C60.2523 19.0994 61.0941 18.0475 61.9759 18.3173Z" fill="black"/>
<path d="M70.6365 65.9415C70.5975 65.9404 70.5593 65.9306 70.5247 65.9127C70.4901 65.8948 70.46 65.8694 70.4365 65.8382C70.4174 65.8185 70.4039 65.794 70.3972 65.7674C70.3906 65.7407 70.3911 65.7128 70.3987 65.6864C70.4702 65.4545 71.1311 65.2648 71.2068 65.2437C71.2151 65.2407 71.2241 65.2406 71.2325 65.2432C71.2408 65.2459 71.2481 65.2512 71.2531 65.2584C71.2578 65.2657 71.2603 65.2741 71.2603 65.2827C71.2603 65.2913 71.2578 65.2997 71.2531 65.3069C71.1353 65.5325 70.9017 65.912 70.6617 65.9394L70.6365 65.9415ZM71.1247 65.3617C70.8638 65.4461 70.5228 65.5915 70.4934 65.7138C70.4902 65.7254 70.4903 65.7376 70.4937 65.7491C70.497 65.7607 70.5035 65.7711 70.5123 65.7792C70.5291 65.8033 70.552 65.8226 70.5785 65.8352C70.6051 65.8478 70.6345 65.8532 70.6638 65.8508C70.7859 65.8361 70.9564 65.6548 71.1247 65.3617Z" fill="#407BFF"/>
<path d="M70.9165 65.3695C70.7195 65.3895 70.5224 65.3338 70.3651 65.2137C70.343 65.1858 70.3311 65.1514 70.3311 65.1159C70.3311 65.0803 70.343 65.0459 70.3651 65.018C70.3838 64.9888 70.4088 64.9642 70.4383 64.946C70.4678 64.9278 70.501 64.9164 70.5355 64.9128C70.8091 64.8791 71.2237 65.2369 71.2406 65.2516C71.2467 65.2565 71.2514 65.2631 71.254 65.2705C71.2566 65.278 71.257 65.286 71.2553 65.2937C71.2544 65.3019 71.2512 65.3096 71.2459 65.316C71.2407 65.3224 71.2337 65.327 71.2258 65.3295C71.1253 65.3581 71.021 65.3716 70.9165 65.3695ZM70.5818 65.0011H70.5524C70.5308 65.0036 70.51 65.0107 70.4915 65.0219C70.473 65.0332 70.4571 65.0484 70.445 65.0664C70.4135 65.1148 70.424 65.14 70.445 65.1569C70.5271 65.2642 70.9017 65.3042 71.129 65.2621C70.9734 65.1274 70.7844 65.0373 70.5818 65.0011Z" fill="#407BFF"/>
<path d="M53.5283 72.9017C53.3657 72.9164 53.203 72.8748 53.0674 72.7838C53.0385 72.7574 53.016 72.7247 53.0018 72.6882C52.9875 72.6517 52.9819 72.6124 52.9854 72.5733C52.9871 72.5484 52.9951 72.5243 53.0088 72.5033C53.0224 72.4823 53.0411 72.4651 53.0632 72.4534C53.2968 72.325 54.0545 72.7122 54.1408 72.7585C54.1488 72.7631 54.1553 72.7699 54.1594 72.7782C54.1636 72.7864 54.1651 72.7957 54.1639 72.8048C54.1627 72.8141 54.1586 72.8228 54.1522 72.8296C54.1458 72.8364 54.1374 72.841 54.1281 72.8427C53.9304 72.8806 53.7297 72.9004 53.5283 72.9017ZM53.1895 72.5081C53.1604 72.5062 53.1314 72.5121 53.1053 72.5249C53.0963 72.5294 53.0887 72.5363 53.0835 72.5448C53.0783 72.5534 53.0756 72.5633 53.0758 72.5733C53.0724 72.5997 53.0754 72.6265 53.0845 72.6514C53.0937 72.6763 53.1088 72.6986 53.1285 72.7165C53.2442 72.8217 53.5494 72.8385 53.9703 72.7691C53.7268 72.6382 53.4628 72.5499 53.1895 72.5081Z" fill="#407BFF"/>
<path d="M54.1197 72.8413H54.1007C53.8734 72.738 53.4252 72.3269 53.4694 72.1119C53.4694 72.0613 53.5136 71.996 53.6377 71.9833C53.6826 71.9786 53.7279 71.9831 53.7709 71.9965C53.814 72.0099 53.8539 72.032 53.8882 72.0613C54.126 72.2616 54.1702 72.7738 54.1723 72.797C54.1729 72.8048 54.1715 72.8126 54.1682 72.8196C54.1649 72.8266 54.1597 72.8327 54.1533 72.8371C54.1484 72.8402 54.1428 72.8422 54.137 72.843C54.1312 72.8437 54.1252 72.8431 54.1197 72.8413ZM53.6651 72.0676H53.6398C53.5556 72.0676 53.5514 72.1098 53.5493 72.1203C53.5283 72.2489 53.8335 72.5736 54.065 72.7127C54.0461 72.4961 53.9608 72.2907 53.8208 72.1245C53.7782 72.0854 53.7229 72.0629 53.6651 72.0613V72.0676Z" fill="#407BFF"/>
<path d="M60.7215 29.4144L60.9193 30.108C60.9467 30.1607 60.8835 30.2155 60.793 30.2155H52.8397C52.7703 30.2155 52.7114 30.1818 52.7071 30.1375L52.6377 29.446C52.6377 29.3975 52.6924 29.3575 52.7703 29.3575H60.5973C60.6211 29.3555 60.6451 29.3596 60.6668 29.3696C60.6886 29.3796 60.7074 29.395 60.7215 29.4144Z" fill="#407BFF"/>
<path opacity="0.3" d="M60.7215 29.4144L60.9193 30.108C60.9467 30.1607 60.8835 30.2155 60.793 30.2155H52.8397C52.7703 30.2155 52.7114 30.1818 52.7071 30.1375L52.6377 29.446C52.6377 29.3975 52.6924 29.3575 52.7703 29.3575H60.5973C60.6211 29.3555 60.6451 29.3596 60.6668 29.3696C60.6886 29.3796 60.7074 29.395 60.7215 29.4144Z" fill="white"/>
<path d="M59.6714 30.2998H59.8819C59.9219 30.2998 59.9535 30.2787 59.9514 30.2513L59.8524 29.3512C59.8524 29.3259 59.8146 29.3027 59.7725 29.3027H59.562C59.5199 29.3027 59.4884 29.3259 59.4926 29.3512L59.5894 30.2513C59.5936 30.2787 59.6209 30.2998 59.6714 30.2998Z" fill="#263238"/>
<path d="M53.4295 30.2998H53.6399C53.682 30.2998 53.7136 30.2787 53.7115 30.2513L53.6126 29.3512C53.6126 29.3259 53.5726 29.3027 53.5326 29.3027H53.3221C53.2801 29.3027 53.2485 29.3259 53.2506 29.3512L53.3495 30.2513C53.3516 30.2787 53.3874 30.2998 53.4295 30.2998Z" fill="#263238"/>
<path d="M56.5502 30.2998H56.7607C56.8028 30.2998 56.8343 30.2787 56.8322 30.2513L56.7333 29.3512C56.7333 29.3259 56.6954 29.3027 56.6533 29.3027H56.4429C56.4008 29.3027 56.3692 29.3259 56.3734 29.3512L56.4639 30.2576C56.4639 30.2787 56.5081 30.2998 56.5502 30.2998Z" fill="#263238"/>
<path d="M55.6052 11.8222L55.2285 11.7506C55.2285 11.7506 55.4432 12.02 55.6052 11.8222Z" fill="#263238"/>
<path opacity="0.2" d="M48.6392 38.6668C45.0736 40.0544 41.1773 40.3517 37.4429 39.5212C33.7086 38.6907 30.304 36.7696 27.6596 34.0009C25.0153 31.2323 23.2499 27.7404 22.5868 23.9668C21.9237 20.1931 22.3926 16.3073 23.9342 12.8006C25.4758 9.29389 28.0209 6.32383 31.2477 4.26599C34.4744 2.20814 38.2379 1.15493 42.0622 1.23953C45.8866 1.32412 49.6 2.54274 52.7329 4.74126C55.8658 6.93979 58.2776 10.0195 59.6631 13.5909C60.5835 15.9625 61.0284 18.4924 60.9724 21.0361C60.9165 23.5799 60.3608 26.0877 59.3371 28.4163C58.3133 30.7449 56.8417 32.8487 55.0061 34.6075C53.1706 36.3663 51.0071 37.7457 48.6392 38.6668Z" fill="#407BFF"/>
<path opacity="0.1" d="M45.1394 1.55578L29.9695 36.0654C29.7358 35.8884 29.5043 35.705 29.277 35.5194C27.8108 34.3045 26.534 32.877 25.4888 31.2843L38.592 1.47567C40.7629 1.12545 42.9777 1.15255 45.1394 1.55578Z" fill="white"/>
<path opacity="0.1" d="M55.9233 7.54281L41.6604 39.9886C38.6978 39.9918 35.7742 39.3123 33.1157 38.0028L48.6898 2.5719C51.4488 3.65274 53.9235 5.35335 55.9233 7.54281Z" fill="white"/>
<path d="M25.7117 7.55758C28.2889 4.40324 31.742 2.08524 35.6344 0.896701C39.5269 -0.291836 43.6837 -0.29753 47.5794 0.880341C51.475 2.05821 54.9345 4.36674 57.5203 7.51401C60.1061 10.6613 61.7021 14.5059 62.1065 18.5618C62.5109 22.6176 61.7056 26.7025 59.7923 30.2999C57.879 33.8973 54.9437 36.8455 51.3575 38.7719C47.7714 40.6983 43.6955 41.5162 39.6453 41.1223C35.5951 40.7283 31.7525 39.1402 28.6034 36.5588C24.381 33.0968 21.7043 28.0966 21.162 22.658C20.6197 17.2194 22.2562 11.7877 25.7117 7.55758ZM56.2536 32.5934C58.6193 29.6968 60.0744 26.1627 60.4349 22.4378C60.7953 18.7129 60.0451 14.9645 58.2789 11.6668C56.5127 8.36897 53.8099 5.66984 50.5122 3.91065C47.2146 2.15146 43.4703 1.41122 39.7527 1.78354C36.0351 2.15586 32.5112 3.62402 29.6266 6.00236C26.742 8.3807 24.6262 11.5624 23.5468 15.1452C22.4674 18.728 22.4729 22.5509 23.5625 26.1306C24.6521 29.7102 26.7769 32.8859 29.6683 35.256C31.5884 36.8298 33.7992 38.0094 36.1744 38.7274C38.5496 39.4454 41.0428 39.6877 43.5115 39.4405C45.9803 39.1932 48.3762 38.4613 50.5625 37.2865C52.7488 36.1116 54.6826 34.5169 56.2536 32.5934Z" fill="#407BFF"/>
<path d="M58.0699 32.5217C60.0967 33.7339 62.0245 35.0662 63.9186 36.4407C65.8127 37.8152 67.6585 39.2466 69.4747 40.7159C71.291 42.1853 73.0736 43.6968 74.7931 45.2842C75.6545 46.0768 76.4964 46.8905 77.3186 47.7254C78.1436 48.5686 78.9539 49.4118 79.7178 50.3268C79.8943 50.5386 79.9916 50.8054 79.993 51.0813C79.9944 51.3572 79.8998 51.625 79.7254 51.8386C79.551 52.0522 79.3078 52.1982 79.0375 52.2517C78.7673 52.3051 78.4869 52.2625 78.2446 52.1313C77.1923 51.5621 76.2074 50.9339 75.2245 50.2909C74.2417 49.648 73.282 48.9776 72.3349 48.2882C70.4408 46.9137 68.6077 45.4655 66.8124 43.9708C65.0172 42.4762 63.2493 40.9478 61.5299 39.3583C59.8104 37.7688 58.1246 36.1413 56.5378 34.3916C56.3396 34.1752 56.226 33.8945 56.2178 33.6009C56.2095 33.3074 56.3072 33.0207 56.4929 32.7935C56.6786 32.5663 56.9398 32.4137 57.2287 32.3638C57.5176 32.3139 57.8148 32.3699 58.0657 32.5217H58.0699Z" fill="#407BFF"/>
<path d="M60.3343 31.9441L58.3013 32.254L59.7555 33.5315C59.7555 33.5315 60.9047 33.1099 61.0183 32.3299L60.3343 31.9441Z" fill="#FFC3BD"/>
<path d="M57.2026 33.424L58.4801 34.4275L60.0396 33.4071L58.2991 32.2561L57.2026 33.424Z" fill="#FFC3BD"/>
<path d="M47.5915 35.6438C47.7772 35.136 48.112 34.6965 48.5519 34.383C48.9919 34.0696 49.5162 33.8969 50.056 33.8877H66.9033C67.1944 33.8768 67.4844 33.9301 67.7527 34.0437C68.0211 34.1572 68.2612 34.3284 68.4563 34.5452C68.6514 34.7619 68.7966 35.0188 68.8818 35.2979C68.9669 35.577 68.9898 35.8714 68.949 36.1603L64.5967 72.738C64.5043 73.3607 64.1938 73.9302 63.7207 74.3446C63.2476 74.759 62.6427 74.9913 62.0143 75H8.55752C8.26739 75.0111 7.97836 74.9583 7.71078 74.8454C7.4432 74.7326 7.20356 74.5623 7.00875 74.3467C6.81393 74.131 6.66867 73.8752 6.58318 73.5973C6.4977 73.3194 6.47407 73.0261 6.51395 72.738L10.1633 42.0061C10.2557 41.3834 10.5662 40.8139 11.0393 40.3995C11.5124 39.9851 12.1172 39.7527 12.7457 39.7441H41.8354C43.096 39.7225 44.3204 39.3193 45.3478 38.5875C46.3752 37.8556 47.1574 36.8294 47.5915 35.6438Z" fill="#407BFF"/>
<path d="M7.47559 73.3156H63.3316L66.5159 35.667H10.6577L7.47559 73.3156Z" fill="#F0F0F0"/>
<path d="M7.47559 73.3156H63.3316L65.6362 35.667H10.6577L7.47559 73.3156Z" fill="#E0E0E0"/>
<path d="M7.47559 73.3156H63.3316L65.2531 34.4738H9.39498L7.47559 73.3156Z" fill="#F0F0F0"/>
<path d="M7.47559 73.3156H63.3316L64.0914 34.4738H9.39498L7.47559 73.3156Z" fill="#E0E0E0"/>
<path d="M7.47559 73.3156H63.3316L63.6642 33.4197H7.80811L7.47559 73.3156Z" fill="#F0F0F0"/>
<path d="M7.4756 73.3156H63.3316L62.1867 34.1744H6.68848L7.4756 73.3156Z" fill="#E0E0E0"/>
<path d="M7.47581 73.3156H63.3319L61.6755 34.4738H5.81738L7.47581 73.3156Z" fill="#F0F0F0"/>
<path d="M7.47559 73.3156H63.3316L60.6925 35.0598H4.83643L7.47559 73.3156Z" fill="#E0E0E0"/>
<path d="M7.47561 73.3156H63.3317L60.2716 35.3866H4.41553L7.47561 73.3156Z" fill="#F0F0F0"/>
<path d="M35.4478 38.0196C35.451 37.775 35.5032 37.5335 35.6014 37.3096C35.6996 37.0856 35.8418 36.8837 36.0195 36.716C36.1972 36.5482 36.4068 36.4179 36.6358 36.333C36.8648 36.248 37.1085 36.21 37.3525 36.2214H54.1998C54.8521 36.2465 55.4776 36.4878 55.9781 36.9075C56.4786 37.3272 56.8258 37.9015 56.9652 38.5403L63.6221 72.6916C63.8704 73.9712 63.037 75.0105 61.7595 75.0105H8.30271C7.02311 75.0105 5.77719 73.9712 5.53516 72.6916L0.0442647 44.5378C-0.204078 43.2582 0.629343 42.2189 1.90683 42.2189H30.9987C33.5242 42.2189 35.3615 40.4776 35.4478 38.0196Z" fill="#407BFF"/>
<path opacity="0.2" d="M35.4478 38.0196C35.451 37.775 35.5032 37.5335 35.6014 37.3096C35.6996 37.0856 35.8418 36.8837 36.0195 36.716C36.1972 36.5482 36.4068 36.4179 36.6358 36.333C36.8648 36.248 37.1085 36.21 37.3525 36.2214H54.1998C54.8521 36.2465 55.4776 36.4878 55.9781 36.9075C56.4786 37.3272 56.8258 37.9015 56.9652 38.5403L63.6221 72.6916C63.8704 73.9712 63.037 75.0105 61.7595 75.0105H8.30271C7.02311 75.0105 5.77719 73.9712 5.53516 72.6916L0.0442647 44.5378C-0.204078 43.2582 0.629343 42.2189 1.90683 42.2189H30.9987C33.5242 42.2189 35.3615 40.4776 35.4478 38.0196Z" fill="black"/>
</g>
<defs>
<clipPath id="clip0_8193_37442">
<rect width="80" height="75" fill="white"/>
</clipPath>
</defs>
</svg>
