<svg width="40" height="40" viewBox="0 0 40 40" fill="none" xmlns="http://www.w3.org/2000/svg">
<circle opacity="0.1" cx="20" cy="20" r="20" fill="#EA6C3B"/>
<circle opacity="0.3" cx="20" cy="20" r="15" fill="#EA6C3B"/>
<path d="M29.5507 23.1406L22.7226 11.6289C21.496 9.55859 18.5038 9.55859 17.2734 11.6289L10.4492 23.1406C9.19525 25.25 10.7187 27.9219 13.1718 27.9219H26.8281C29.2812 27.9219 30.8046 25.25 29.5507 23.1406ZM19.9999 25.375C19.1913 25.375 18.5351 24.7188 18.5351 23.9102C18.5351 23.1016 19.1913 22.4453 19.9999 22.4453C20.8085 22.4453 21.4648 23.1016 21.4648 23.9102C21.4648 24.7188 20.8085 25.375 19.9999 25.375ZM21.5038 16.0508L21.3242 20.2852C21.2929 21.0156 20.6757 21.582 19.9453 21.5508C19.2578 21.5234 18.707 20.9727 18.6796 20.2852L18.4999 16.0508C18.457 15.2188 19.0976 14.5117 19.9257 14.4688C20.7578 14.4258 21.4648 15.0664 21.5078 15.8945C21.5078 15.9492 21.5078 16 21.5038 16.0508Z" fill="#EA6C3B"/>
</svg>
