<svg width="150" height="40" viewBox="0 0 150 40" fill="none" xmlns="http://www.w3.org/2000/svg">
<path d="M54.0025 33.5077H49.238L41.1494 11.1309H45.1161L51.6092 29.1529L58.1022 11.1309H62.069L54.0025 33.5077Z" fill="white"/>
<path d="M76.068 34.6671C74.0419 34.6671 72.192 34.1386 70.5183 33.0816C68.8592 32.0247 67.5305 30.6104 66.5322 28.8389C65.5485 27.0524 65.0566 25.0799 65.0566 22.9213C65.0566 21.2837 65.3429 19.7578 65.9155 18.3436C66.4881 16.9144 67.2736 15.6639 68.2719 14.5921C69.285 13.5053 70.4595 12.6568 71.7956 12.0464C73.1316 11.436 74.5557 11.1309 76.068 11.1309C77.727 11.1309 79.2466 11.4733 80.6267 12.1581C82.0214 12.828 83.2106 13.7658 84.1943 14.9717C85.1927 16.1775 85.9341 17.5769 86.4186 19.1698C86.9178 20.7627 87.1013 22.4673 86.9692 24.2835H68.9987C69.1749 25.5488 69.586 26.6803 70.232 27.6777C70.878 28.6602 71.7001 29.4418 72.6985 30.0224C73.7115 30.603 74.8347 30.9007 76.068 30.9156C77.3893 30.9156 78.5859 30.5732 79.6577 29.8884C80.7294 29.1887 81.5956 28.2359 82.2563 27.0301L86.0222 27.9233C85.1413 29.9033 83.8126 31.526 82.0361 32.7913C80.2596 34.0418 78.2702 34.6671 76.068 34.6671ZM68.8886 21.3358H83.2473C83.1299 20.0853 82.7335 18.9465 82.0581 17.9193C81.3828 16.8772 80.5239 16.0435 79.4815 15.4183C78.4391 14.793 77.3012 14.4804 76.068 14.4804C74.8347 14.4804 73.7042 14.7856 72.6765 15.396C71.6488 16.0063 70.7972 16.8326 70.1219 17.8746C69.4612 18.9018 69.0501 20.0556 68.8886 21.3358Z" fill="white"/>
<path d="M90 34.0874V11.7561H93.7225V14.5475C94.5054 13.5054 95.4877 12.6792 96.6694 12.0688C97.8659 11.4435 99.1659 11.1309 100.569 11.1309C102.209 11.1309 103.708 11.5328 105.067 12.3367C106.426 13.1407 107.497 14.2051 108.28 15.5301C109.063 14.2051 110.126 13.1407 111.471 12.3367C112.83 11.5328 114.322 11.1309 115.947 11.1309C117.616 11.1309 119.13 11.5403 120.489 12.3591C121.848 13.163 122.926 14.2498 123.724 15.6194C124.536 16.9891 124.943 18.5151 124.943 20.1973V34.0874H121.22V21.0906C121.22 19.9889 120.954 18.9691 120.422 18.0312C119.891 17.0933 119.174 16.3415 118.273 15.7758C117.372 15.21 116.375 14.9272 115.282 14.9272C114.189 14.9272 113.192 15.1951 112.291 15.7311C111.389 16.2522 110.673 16.9816 110.141 17.9196C109.609 18.8426 109.344 19.8996 109.344 21.0906V34.0874H105.621V21.0906C105.621 19.8996 105.355 18.8426 104.823 17.9196C104.292 16.9816 103.568 16.2522 102.652 15.7311C101.751 15.1951 100.754 14.9272 99.6607 14.9272C98.5824 14.9272 97.5853 15.21 96.6694 15.7758C95.7684 16.3415 95.0519 17.0933 94.5201 18.0312C93.9884 18.9691 93.7225 19.9889 93.7225 21.0906V34.0874H90Z" fill="white"/>
<path d="M138.966 34.6671C136.936 34.6671 135.082 34.1386 133.405 33.0816C131.742 32.0247 130.411 30.6104 129.41 28.8389C128.425 27.0524 127.932 25.0799 127.932 22.9213C127.932 21.2837 128.219 19.7578 128.792 18.3436C129.366 16.9144 130.153 15.6639 131.154 14.5921C132.169 13.5053 133.346 12.6568 134.685 12.0464C136.024 11.436 137.451 11.1309 138.966 11.1309C140.996 11.1309 142.843 11.6593 144.505 12.7163C146.183 13.7733 147.514 15.195 148.5 16.9814C149.5 18.7679 150.001 20.7478 150.001 22.9213C150.001 24.544 149.714 26.0624 149.14 27.4767C148.566 28.891 147.772 30.1415 146.756 31.2282C145.756 32.3001 144.586 33.1412 143.247 33.7515C141.923 34.3619 140.496 34.6671 138.966 34.6671ZM138.966 30.9156C140.349 30.9156 141.592 30.5509 142.696 29.8214C143.814 29.0771 144.689 28.102 145.322 26.8961C145.969 25.6754 146.293 24.3505 146.293 22.9213C146.293 21.4624 145.962 20.1226 145.3 18.9018C144.653 17.6811 143.777 16.706 142.674 15.9766C141.57 15.2471 140.334 14.8824 138.966 14.8824C137.583 14.8824 136.34 15.2545 135.236 15.9989C134.133 16.7283 133.258 17.7034 132.61 18.9242C131.963 20.1449 131.639 21.4773 131.639 22.9213C131.639 24.41 131.97 25.7647 132.632 26.9854C133.294 28.1913 134.185 29.1515 135.303 29.8661C136.421 30.5657 137.642 30.9156 138.966 30.9156Z" fill="white"/>
<g clip-path="url(#clip0_7414_55918)">
<path d="M24.5231 33.0097L21.1507 39.0678C20.4296 40.3631 18.5702 40.3216 17.9066 38.9953L10.9081 25.0089C10.4969 24.1872 11.3919 23.3266 12.1837 23.7822L23.8302 30.4837C24.7096 30.9897 25.0192 32.1185 24.5231 33.0097Z" fill="white"/>
<path d="M31.6711 1.70425L8.49924 14.2158C7.12968 14.9553 5.42619 14.4073 4.73175 13.0039L0.271356 3.9897C-0.645749 2.13627 0.688038 -0.0444336 2.73875 -0.0444336H31.2377C32.1946 -0.0444336 32.515 1.24856 31.6711 1.70425Z" fill="white"/>
<path d="M40.9803 2.56481L27.2248 27.6156C26.7276 28.521 25.594 28.8412 24.7043 28.3275L9.79481 19.7186C8.56158 19.0065 8.55871 17.2107 9.78965 16.4946L37.146 0.579995C37.8498 0.170571 38.6476 -0.0449219 39.4597 -0.0449219C40.7853 -0.0449219 41.6234 1.3936 40.9803 2.56481Z" fill="#0F73F2"/>
</g>
<defs>
<clipPath id="clip0_7414_55918">
<rect width="41.1494" height="40" fill="white"/>
</clipPath>
</defs>
</svg>
